<svg width="61" height="42" viewBox="0 0 61 42" fill="none" xmlns="http://www.w3.org/2000/svg">
<path fill-rule="evenodd" clip-rule="evenodd" d="M37.6917 40.0306C37.7094 40.3107 37.7271 40.5913 37.7541 40.8698C37.7773 41.1395 37.893 41.3734 38.0868 41.5575C38.342 41.8126 38.7154 41.9494 39.0929 41.893C39.7513 41.7921 40.223 41.1693 40.1645 40.5191C40.1216 40.0423 40.0884 39.5654 40.0648 39.0882C40.0603 38.9331 40.0684 38.7777 40.0763 38.6249C40.0783 38.5876 40.0802 38.5506 40.0819 38.5137C40.1055 38.3105 40.1292 38.1073 40.1721 37.9038C40.2621 37.5303 40.371 37.1758 40.4945 36.8161C40.725 36.1887 41.0034 35.5796 41.3009 34.9798C41.6329 34.3454 41.9887 33.7251 42.3827 33.1231C43.0054 32.2076 43.7091 31.3433 44.4267 30.5029L44.4316 30.498C44.4381 30.4915 44.4467 30.4828 44.4534 30.4735C45.115 29.7306 45.8407 29.0518 46.571 28.3775C47.3865 27.6942 48.1922 27.0208 49.0589 26.4281C49.6805 26.0144 50.3206 25.6388 50.9792 25.3015C52.0228 24.787 53.1025 24.3876 54.1918 23.988C54.9889 23.7201 55.7859 23.4521 56.5827 23.1939C56.686 23.1603 56.7894 23.1263 56.8929 23.0924C57.5053 22.8916 58.1223 22.6892 58.7487 22.5396C58.7946 22.5452 58.8406 22.5508 58.885 22.5549C58.9058 22.5569 58.9262 22.5585 58.9461 22.5596C59.5246 22.5858 60.0207 22.4015 60.3407 21.8736C60.556 21.5071 60.5612 21.0389 60.3613 20.6813C60.1804 20.3426 59.8563 20.1565 59.4812 20.097C59.313 20.0668 59.1441 20.0656 58.975 20.074C58.86 20.0379 58.7401 20.0067 58.625 19.9705C57.3652 19.5113 56.1444 18.9589 54.9287 18.4089L54.8473 18.3721C54.0403 17.9792 53.2579 17.5616 52.5057 17.0855C51.9158 16.6928 51.3556 16.2609 50.8154 15.7995C49.703 14.8158 48.6891 13.7273 47.6747 12.6381C47.4454 12.3919 47.216 12.1457 46.9855 11.9006C46.0752 10.9213 45.1698 9.93701 44.2644 8.95273C43.6334 8.22313 43.0316 7.48328 42.4986 6.68403C42.2653 6.31265 42.0562 5.93594 41.8619 5.54443C41.7331 5.24802 41.614 4.9514 41.5097 4.64001C41.4561 4.43848 41.4072 4.24173 41.3682 4.03508C41.3473 3.88595 41.3313 3.73189 41.3202 3.5729C41.3208 3.54756 41.3208 3.52169 41.3208 3.49547C41.3209 3.44184 41.321 3.38675 41.3254 3.33154C41.3375 3.21548 41.3544 3.10416 41.3761 2.98787C41.3835 2.95449 41.3931 2.92333 41.4034 2.8897C41.4081 2.87451 41.413 2.85883 41.4178 2.8422C41.4585 2.74484 41.5041 2.64254 41.5495 2.5499C41.9278 1.78429 41.2764 0.876603 40.465 0.913227C40.1898 0.923942 39.9225 1.01165 39.7017 1.18525C39.4907 1.34899 39.3461 1.56921 39.2686 1.80729C38.4838 3.53695 39.0541 5.52719 39.8656 7.06836C40.6261 8.50931 41.6652 9.78507 42.7592 10.9776C43.7024 11.9997 44.6408 13.017 45.5939 14.0293C45.7917 14.2401 45.989 14.4522 46.1865 14.6645C47.4909 16.067 48.804 17.479 50.36 18.5982C50.7515 18.8792 51.1528 19.1432 51.5626 19.3925C51.1292 19.356 50.6959 19.3214 50.2632 19.2902C48.9672 19.1973 47.6711 19.114 46.3698 19.0453C44.914 18.9799 43.4674 18.9335 42.011 18.8971C39.5709 18.8334 37.1197 18.8375 34.6775 18.8703C32.8033 18.8923 30.9283 18.9226 29.0532 18.953C25.4285 19.0117 21.8031 19.0704 18.1811 19.0682C17.2667 19.0684 16.3566 19.0643 15.4466 19.0601C14.9929 19.058 14.5392 19.0559 14.0849 19.0544C13.7578 19.0536 13.4297 19.0518 13.101 19.0499L13.0987 19.0499C12.2064 19.045 11.3097 19.04 10.4178 19.0555L10.4024 19.0556L10.3951 19.0558C9.13823 19.073 7.89086 19.0902 6.63837 19.1217C5.99626 19.1403 5.35407 19.1588 4.71688 19.1724C4.44858 19.1767 4.17983 19.1831 3.91078 19.1895C3.26501 19.2049 2.61753 19.2204 1.97067 19.2069C1.94169 19.2075 1.91771 19.2032 1.88873 19.2039C1.45326 19.0346 0.925322 19.1279 0.5654 19.4878L0.545674 19.5075C0.0719491 20.0002 0.0610235 20.7387 0.509196 21.2164C0.513925 21.2211 0.523354 21.2306 0.518418 21.2355C0.806587 21.5237 1.19608 21.5877 1.5913 21.6083L1.58164 21.6085C1.60095 21.6081 1.62498 21.6124 1.64429 21.612L1.64773 21.6121C1.64954 21.6122 1.6512 21.6125 1.65286 21.6128C1.6582 21.6138 1.66352 21.6148 1.67324 21.6113C1.68339 21.6077 1.69347 21.6089 1.7019 21.6098C1.70544 21.6102 1.70905 21.6106 1.71188 21.6105L1.69257 21.6109C2.56081 21.6482 3.44026 21.6226 4.31603 21.5972L4.31674 21.5972L4.4131 21.5944C4.56493 21.59 4.71661 21.5856 4.86811 21.5817C5.24631 21.5736 5.62269 21.5618 5.99843 21.5499L6.00037 21.5499C6.46804 21.5351 6.93471 21.5204 7.40273 21.5131C9.28987 21.4873 11.1721 21.4664 13.0587 21.4695C14.0534 21.469 15.0472 21.4752 16.0411 21.4814L16.0449 21.4814C17.5906 21.491 19.1367 21.5007 20.6868 21.4852C23.2543 21.4593 25.8218 21.4334 28.385 21.3835L29.1316 21.3701L29.1376 21.3699C31.647 21.3248 34.1527 21.2796 36.6575 21.2744C38.0858 21.2728 39.5138 21.2809 40.9466 21.2938C41.6839 21.3051 42.419 21.3259 43.1547 21.3467C43.5982 21.3592 44.0419 21.3717 44.4863 21.3822C46.5493 21.4829 48.6121 21.5932 50.6592 21.757C51.3863 21.815 52.111 21.8753 52.8348 21.9428C52.2043 22.1714 51.5797 22.4155 50.9675 22.6865C49.5743 23.3049 48.2409 24.062 47.0149 24.9857C46.9317 25.0471 46.847 25.1078 46.7619 25.1687C46.551 25.3196 46.3382 25.472 46.142 25.6412C45.9971 25.7625 45.8546 25.8837 45.712 26.005C45.5695 26.1263 45.427 26.2475 45.2821 26.3688C44.7611 26.8142 44.2445 27.2837 43.7613 27.7668C43.076 28.4522 42.4334 29.1703 41.8286 29.9263C41.2536 30.6431 40.6882 31.3596 40.1939 32.1373C39.6748 32.9494 39.2127 33.7988 38.808 34.676C38.4638 35.4264 38.1435 36.1908 37.9335 36.9866C37.7083 37.8165 37.6033 38.6679 37.6575 39.5208C37.6703 39.6902 37.681 39.8603 37.6917 40.0306ZM44.4534 30.4735C44.4568 30.4687 44.4596 30.4637 44.4614 30.4587C44.4515 30.4686 44.4367 30.4834 44.4316 30.498C44.4388 30.4898 44.4461 30.4816 44.4534 30.4735Z" fill="#DA5077"/>
</svg>
