<svg width="110" height="114" viewBox="0 0 110 114" fill="none" xmlns="http://www.w3.org/2000/svg">
<path d="M50.7436 76.7808C48.5499 78.3099 46.3005 78.608 44.1068 76.8481C41.9315 75.1074 41.7279 72.7224 42.5702 69.7988C39.7192 70.4432 37.1552 70.424 35.4706 67.7889C34.0266 65.5289 34.3783 63.317 35.8038 61.182C35.9796 60.9993 36.1555 60.8262 36.3314 60.6435C37.3496 59.8837 38.5344 59.1432 39.7192 59.3933C41.8852 59.8453 41.4872 58.8066 41.6075 57.2198C41.7649 55.0271 41.5427 54.1328 39.1824 54.4886C38.3215 54.6136 37.3311 53.825 36.4054 53.4499C36.1555 53.1903 35.9056 52.9306 35.6557 52.6806C34.4061 50.4975 34.0173 48.276 35.5353 46.0737C37.22 43.631 39.5989 43.4194 42.5239 44.2272C41.7834 41.2363 41.8945 38.6109 44.4215 36.8702C46.5875 35.3892 48.7165 35.7546 50.7529 37.226C50.9287 37.4088 51.0954 37.5915 51.2712 37.7742C51.6878 38.8417 52.5856 39.9861 52.4283 40.9478C52.0117 43.5444 53.1966 43.0732 54.9275 43.2174C57.0102 43.3906 57.1861 42.8039 57.1305 40.9574C57.0935 39.9092 57.8896 38.8417 58.3061 37.7742C58.4912 37.5819 58.6764 37.3799 58.8615 37.1876C61.046 35.5912 63.2953 35.3219 65.4891 37.0529C67.6736 38.784 67.9328 41.1498 67.0904 44.0541C69.8673 43.554 72.4592 43.429 74.1623 46.0929C75.6063 48.3529 75.2731 50.5648 73.9032 52.7191C73.6903 52.9402 73.4774 53.1518 73.2737 53.373C72.237 53.7962 71.154 54.6617 70.1728 54.5463C68.0531 54.2962 68.0809 55.0752 68.1086 56.9409C68.1364 58.7489 68.0346 59.6145 70.1821 59.3644C71.1633 59.249 72.2463 60.1241 73.2737 60.5473C73.4866 60.7685 73.6995 60.9897 73.9217 61.2109C75.3842 63.4805 75.6711 65.8174 73.9957 68.0774C72.3296 70.3182 70.0895 70.674 67.2663 69.7123C67.8402 72.732 67.7477 75.4825 65.0633 77.2136C62.9991 78.5407 60.9627 78.1753 59.0003 76.877C58.7319 76.5981 58.4727 76.3192 58.2043 76.0499C57.1676 74.4535 56.8991 72.6743 57.1861 70.8182C54.2333 70.472 51.7803 70.5586 52.0858 74.6266C52.1228 75.1171 51.6045 75.646 51.336 76.1557C51.1324 76.3769 50.938 76.5788 50.7436 76.7808ZM64.8874 67.4234C63.1935 66.356 66.748 62.9996 62.9713 62.9804C61.046 62.9708 60.5924 63.6536 60.6109 65.5097C60.6387 69.4046 63.8229 65.7212 64.8874 67.4234ZM44.8473 67.4715C45.8932 66.0001 49.6606 69.4911 49.0034 64.7018C48.4758 60.8935 46.1524 63.894 44.8658 62.9131C45.3934 64.4999 44.838 65.827 44.8473 67.4715ZM65.017 46.593C60.5462 47.0739 60.6572 47.0931 60.5276 48.1702C60.0926 51.9112 62.814 50.6418 64.9244 51.2284C64.295 49.4877 64.7856 48.0644 65.017 46.593ZM44.8103 46.3911C45.0602 48.0837 45.2175 49.5358 44.9676 51.1707C46.1987 50.0263 48.6702 52.8537 49.0867 49.0838C49.5958 44.4196 45.81 48.1221 44.8103 46.3911ZM53.104 56.6909C53.1781 57.6814 52.4561 59.1047 54.4092 58.7008C55.3996 58.4989 56.677 59.2298 56.5104 57.0948C56.3993 55.6426 56.3252 55.0752 54.7239 55.181C53.5205 55.2579 52.6597 55.1329 53.104 56.6909Z" fill="white"/>
<path d="M51.2899 37.7742C51.114 37.5915 50.9474 37.4088 50.7716 37.226C50.7438 36.9952 50.7716 36.7356 50.6882 36.5336C49.5497 33.9274 49.5127 31.4655 51.8453 29.5613C53.7429 28.013 55.8811 28.0033 57.7879 29.5421C60.1298 31.427 60.102 33.8985 58.9912 36.5048C58.9079 36.7067 58.9264 36.9664 58.8987 37.1972C58.7135 37.3895 58.5284 37.5915 58.3433 37.7838C55.9829 38.7744 53.6318 38.7551 51.2899 37.7742Z" fill="white"/>
<path d="M73.9218 61.2205C73.7089 60.9993 73.496 60.7781 73.2738 60.5569C72.2834 58.1623 72.3019 55.7773 73.2738 53.3826C73.4867 53.1614 73.6996 52.9498 73.9032 52.7286C74.653 52.4882 75.3843 52.1901 76.1525 52.0362C78.3278 51.6035 80.1976 52.1516 81.4472 54.1616C82.5858 55.9984 82.5858 57.9315 81.4565 59.7683C80.2161 61.7783 78.3371 62.336 76.1618 61.9033C75.4028 61.7686 74.6715 61.4609 73.9218 61.2205Z" fill="white"/>
<path d="M58.195 76.0595C58.4635 76.3384 58.7226 76.6173 58.9911 76.8866C59.1392 77.4444 59.2873 78.0118 59.4261 78.5696C60.037 80.9546 59.6668 83.08 57.6304 84.5514C55.7606 85.8977 53.7427 85.8689 51.9007 84.4744C49.9013 82.9549 49.5773 80.8199 50.253 78.4542C50.4104 77.8964 50.5863 77.3386 50.7436 76.7808C50.938 76.5788 51.1324 76.3673 51.3268 76.1653C53.6038 75.1652 55.8994 75.194 58.195 76.0595Z" fill="white"/>
<path d="M36.3408 60.6435C36.165 60.8262 35.9891 60.9993 35.8132 61.182C33.0641 62.0956 30.3057 62.9131 28.26 59.8356C27.0659 58.0469 27.0381 56.0946 28.1767 54.2482C30.1298 51.1034 32.8975 51.7958 35.6744 52.6614C35.9243 52.921 36.1742 53.1807 36.4241 53.4307C37.322 55.8542 37.2387 58.2584 36.3408 60.6435Z" fill="white"/>
<path d="M82.0766 72.5012C82.1322 75.1459 79.8366 77.5309 77.2911 77.4829C74.8752 77.4348 72.7184 75.2036 72.6721 72.684C72.6166 70.0297 74.9029 67.6543 77.4577 67.7023C79.8643 67.76 82.0211 69.9912 82.0766 72.5012Z" fill="white"/>
<path d="M32.3051 77.4444C29.7873 77.4732 27.5195 75.0786 27.6028 72.4724C27.6769 69.9815 29.8244 67.7889 32.2218 67.76C34.7395 67.7312 37.0073 70.1258 36.924 72.732C36.8592 75.2228 34.7025 77.4155 32.3051 77.4444Z" fill="white"/>
<path d="M44.4587 80.2333C44.5605 82.8491 42.3112 85.263 39.7749 85.263C37.3775 85.263 35.2023 83.0703 35.1004 80.5795C34.9986 77.9637 37.2479 75.5498 39.7842 75.5498C42.1908 75.5498 44.3661 77.7329 44.4587 80.2333Z" fill="white"/>
<path d="M77.1058 46.2275C74.5511 46.0641 72.4406 43.5155 72.6998 40.9093C72.9497 38.3897 75.2453 36.3316 77.6242 36.4855C80.179 36.649 82.2894 39.2071 82.0303 41.8037C81.7896 44.3234 79.494 46.3814 77.1058 46.2275Z" fill="white"/>
<path d="M32.1012 36.5144C34.4708 36.4182 36.7202 38.5147 36.9145 41.0151C37.1182 43.6021 34.9614 46.1025 32.4252 46.2083C29.9167 46.3141 27.5933 43.9868 27.6026 41.3613C27.6119 38.8705 29.7038 36.6106 32.1012 36.5144Z" fill="white"/>
<path d="M74.5421 33.5716C74.5328 36.2163 72.1909 38.5436 69.6639 38.4185C67.248 38.3031 65.1561 36.0335 65.1653 33.5235C65.1746 30.8788 67.5164 28.5515 70.0434 28.6765C72.4594 28.7919 74.5513 31.0712 74.5421 33.5716Z" fill="white"/>
<path d="M39.8026 28.7054C42.3296 28.715 44.5604 31.1385 44.4401 33.7447C44.329 36.2451 42.1445 38.4089 39.7563 38.3897C37.2293 38.3801 34.9985 35.9566 35.1096 33.3504C35.2299 30.8596 37.4145 28.6861 39.8026 28.7054Z" fill="white"/>
<path d="M74.542 80.3487C74.5791 82.9934 72.2742 85.3496 69.738 85.2823C67.322 85.2149 65.1931 82.9742 65.1653 80.4642C65.1283 77.8195 67.4239 75.4633 69.9694 75.5402C72.3853 75.6075 74.505 77.8387 74.542 80.3487Z" fill="white"/>
<path d="M42.9592 87.9365C43.3387 85.1861 44.8383 83.7146 47.5041 83.7435C50.0496 83.7723 51.9102 86.0227 51.5862 88.677C51.2437 91.4563 49.5775 92.8508 46.9395 92.6585C44.2459 92.4565 43.0333 90.6485 42.9592 87.9365Z" fill="white"/>
<path d="M84.8813 69.3276C82.234 69.0872 80.6881 67.6543 80.5586 64.8653C80.4382 62.211 82.5117 60.0953 85.0664 60.2876C87.7323 60.4896 89.2503 62.1149 89.1948 64.8846C89.1485 67.6735 87.5194 69.0968 84.8813 69.3276Z" fill="white"/>
<path d="M29.0652 64.7403C28.8616 67.4908 27.5194 69.1833 24.798 69.2026C22.1044 69.2218 20.5308 67.6446 20.4937 64.8365C20.466 62.0379 21.9933 60.4126 24.6869 60.3645C27.4083 60.3261 28.806 61.9802 29.0652 64.7403Z" fill="white"/>
<path d="M66.7111 88.1673C66.5168 90.889 65.1746 92.6104 62.4902 92.697C59.8336 92.7739 58.2415 91.2352 58.0101 88.4559C57.7879 85.8016 59.8059 83.6185 62.3606 83.7147C65.045 83.8205 66.4427 85.4073 66.7111 88.1673Z" fill="white"/>
<path d="M84.8165 53.7096C82.1599 53.4211 80.6418 51.9497 80.5585 49.1608C80.4845 46.5065 82.5949 44.4196 85.1497 44.6696C87.8155 44.9293 89.2966 46.5834 89.204 49.3435C89.1022 52.142 87.436 53.5173 84.8165 53.7096Z" fill="white"/>
<path d="M24.9276 44.6889C27.5749 45.0255 29.1022 46.5449 29.0004 49.3435C28.8985 52.1517 27.2602 53.6808 24.5851 53.5846C21.8822 53.4884 20.4197 51.7862 20.503 48.9973C20.5863 46.1699 22.271 44.8331 24.9276 44.6889Z" fill="white"/>
<path d="M51.6509 25.6375C51.3639 28.5707 49.957 30.2249 47.2449 30.1768C44.542 30.1287 43.0054 28.4842 43.0424 25.676C43.0795 22.8678 44.6715 21.281 47.3652 21.3003C50.1051 21.3195 51.401 23.0698 51.6509 25.6375Z" fill="white"/>
<path d="M66.6834 25.7914C66.4335 28.5323 65.045 30.1191 62.3606 30.2152C59.7966 30.3114 57.8157 28.1668 58.0286 25.5029C58.2415 22.7332 59.8151 21.2041 62.4717 21.281C65.1561 21.358 66.489 23.0602 66.6834 25.7914Z" fill="white"/>
<path d="M32.3791 92.3315C30.0187 92.0526 28.4451 90.7639 28.3896 88.302C28.3433 85.8496 29.8244 84.2532 32.1755 84.1955C34.5359 84.1378 36.0724 85.6861 36.128 88.1289C36.202 90.5908 34.6562 91.9276 32.3791 92.3315Z" fill="white"/>
<path d="M54.8813 100.16C52.5579 99.8712 50.9751 98.5825 50.9196 96.111C50.8733 93.649 52.3728 92.043 54.7239 91.9756C57.0936 91.9179 58.6394 93.4759 58.7042 95.9282C58.7782 98.4191 57.2324 99.7654 54.8813 100.16Z" fill="white"/>
<path d="M92.6846 52.8633C94.7858 53.2191 96.2205 54.527 96.3501 56.9793C96.4612 59.2009 94.2489 61.3647 92.157 61.0666C89.8521 60.7396 88.5007 59.249 88.4729 56.7966C88.4359 54.7001 90.4908 52.8056 92.6846 52.8633Z" fill="white"/>
<path d="M21.1788 56.9409C20.7993 59.4702 19.5034 61.0474 17.143 60.98C14.8011 60.9127 13.3201 59.3259 13.3756 56.8832C13.4312 54.4501 14.9678 52.921 17.3189 52.9691C19.6885 53.0171 20.8734 54.6905 21.1788 56.9409Z" fill="white"/>
<path d="M54.761 13.8182C57.0751 14.0971 58.6487 15.3858 58.6857 17.8478C58.732 20.3001 57.2417 21.8965 54.8906 21.9446C52.5302 21.9927 51.0029 20.4444 50.9474 18.0016C50.8918 15.5397 52.4284 14.2029 54.761 13.8182Z" fill="white"/>
<path d="M36.2019 25.676C35.9428 28.0706 34.7117 29.6863 32.3513 29.744C30.0001 29.7921 28.4728 28.263 28.4173 25.8299C28.3618 23.3872 29.8428 21.8004 32.1847 21.7427C34.545 21.6753 35.8317 23.2525 36.2019 25.676Z" fill="white"/>
<path d="M81.3454 88.2923C80.9567 90.7254 79.6608 92.3315 77.2819 92.2642C74.9215 92.1969 73.422 90.5908 73.4775 88.1288C73.5423 85.6765 75.0881 84.1186 77.4577 84.1763C79.8366 84.2243 81.077 85.8785 81.3454 88.2923Z" fill="white"/>
<path d="M77.3095 21.608C79.6329 21.8965 81.2157 23.1852 81.2713 25.6568C81.3176 28.1187 79.818 29.7248 77.4576 29.7825C75.088 29.8402 73.5422 28.2726 73.4866 25.8203C73.4126 23.3487 74.9584 22.0023 77.3095 21.608Z" fill="white"/>
<path d="M24.7147 76.3096C27.1492 76.6943 28.6672 78.0406 28.6024 80.493C28.5469 82.9261 27.0196 84.4648 24.6685 84.4167C22.3266 84.359 20.8548 82.7722 20.8919 80.3295C20.9382 77.8579 22.5395 76.6269 24.7147 76.3096Z" fill="white"/>
<path d="M84.9462 37.678C82.6228 37.3895 81.04 36.0912 80.9937 33.6197C80.9474 31.1577 82.4469 29.5517 84.8166 29.494C87.1862 29.4363 88.7228 31.0038 88.7876 33.4562C88.8431 35.947 87.288 37.2934 84.9462 37.678Z" fill="white"/>
<path d="M28.6857 33.4273C28.4173 35.8796 27.1862 37.5049 24.8258 37.553C22.4747 37.6011 20.9474 36.0624 20.8919 33.6293C20.8363 31.1865 22.3173 29.6094 24.6592 29.542C27.0381 29.4747 28.3062 31.0807 28.6857 33.4273Z" fill="white"/>
<path d="M88.88 80.493C88.5005 82.8876 87.2324 84.3782 84.872 84.4936C82.7338 84.609 80.6603 82.301 80.9473 80.1179C81.2712 77.7233 82.7153 76.2038 85.0664 76.3288C87.4082 76.4634 88.6301 78.0984 88.88 80.493Z" fill="white"/>
<path d="M92.5179 37.6011C94.8227 37.8511 96.0816 39.1687 95.9705 41.5633C95.8502 43.9868 94.3969 45.1985 92.1198 45.0543C89.9816 44.9196 88.8061 43.5444 88.8338 41.3133C88.8616 38.8994 90.2408 37.7261 92.5179 37.6011Z" fill="white"/>
<path d="M92.4994 76.3865C90.0927 76.1557 88.7783 74.9151 88.8153 72.5397C88.8524 70.1643 90.1761 68.8371 92.4531 68.866C94.7395 68.8948 95.9983 70.2797 95.9983 72.6455C95.9891 75.069 94.5728 76.1845 92.4994 76.3865Z" fill="white"/>
<path d="M17.0872 76.3192C14.8194 76.0499 13.5791 74.742 13.7086 72.3666C13.8382 69.9623 15.2822 68.7794 17.5408 68.9333C19.6698 69.0776 20.8083 70.4528 20.762 72.6551C20.725 75.069 19.3458 76.2038 17.0872 76.3192Z" fill="white"/>
<path d="M69.8491 14.1933C72.1261 14.376 73.4498 15.607 73.4035 18.0113C73.348 20.4251 71.978 21.6849 69.6917 21.6176C67.5535 21.5503 66.3409 20.2424 66.3039 18.0209C66.2668 15.607 67.572 14.376 69.8491 14.1933Z" fill="white"/>
<path d="M17.4668 45.0832C15.0601 44.9389 13.6994 43.7656 13.6994 41.3614C13.7087 38.9667 15.0138 37.6588 17.3094 37.6877C19.4384 37.7069 20.6695 38.9667 20.7621 41.1786C20.8639 43.5925 19.5587 44.8043 17.4668 45.0832Z" fill="white"/>
<path d="M73.4866 96.0245C73.2182 98.5633 71.9316 99.8617 69.636 99.727C67.3034 99.5924 66.1463 98.0633 66.2944 95.6975C66.4333 93.4663 67.7755 92.2738 69.9137 92.3027C72.2741 92.3508 73.32 93.8414 73.4866 96.0245Z" fill="white"/>
<path d="M39.9044 99.7751C37.47 99.5635 36.1648 98.3037 36.2389 95.8994C36.3129 93.4856 37.7014 92.245 39.9877 92.3315C42.126 92.4181 43.3108 93.7452 43.3386 95.9668C43.3756 98.4191 41.9871 99.5539 39.9044 99.7751Z" fill="white"/>
<path d="M43.3665 18.0786C43.1073 20.4347 41.8484 21.7234 39.5621 21.5888C37.248 21.4541 36.1094 19.9539 36.2575 17.6073C36.3964 15.3954 37.7201 14.2125 39.8398 14.2606C42.1631 14.2991 43.2554 15.732 43.3665 18.0786Z" fill="white"/>
<path d="M99.8953 68.1832C97.8404 67.7697 96.5722 66.5964 96.7481 64.5383C96.9147 62.538 98.2477 61.2878 100.247 61.4994C102.034 61.6821 103.172 62.9708 103.107 64.8653C103.033 66.933 101.682 67.9331 99.8953 68.1832Z" fill="white"/>
<path d="M9.72857 68.0581C7.81249 67.8562 6.58138 66.7502 6.62767 64.6826C6.66469 62.7977 7.84025 61.5859 9.66377 61.5763C11.6446 61.5667 12.8572 62.8361 12.8202 64.9038C12.7739 66.7791 11.5891 67.8273 9.72857 68.0581Z" fill="white"/>
<path d="M62.2401 6.81705C63.9895 6.94207 65.2669 7.87492 65.4428 9.77909C65.6279 11.866 64.4709 13.2412 62.4992 13.3566C60.5091 13.472 59.241 12.1833 59.2132 10.1157C59.1855 8.21152 60.361 7.12479 62.2401 6.81705Z" fill="white"/>
<path d="M103.172 49.055C102.987 51.0457 101.969 52.4305 99.9879 52.469C98.0163 52.5075 96.7667 51.1899 96.7389 49.1415C96.7204 47.2566 97.9052 45.9871 99.6917 45.8621C101.673 45.7275 102.793 47.0162 103.172 49.055Z" fill="white"/>
<path d="M9.62672 45.9006C11.3577 46.016 12.6166 46.9296 12.7924 48.8242C12.9776 50.8918 11.839 52.2574 9.87663 52.3728C7.90502 52.4786 6.64615 51.2284 6.61838 49.1608C6.59987 47.2662 7.74767 46.1891 9.62672 45.9006Z" fill="white"/>
<path d="M50.5215 103.766C50.3271 105.738 49.2997 107.103 47.3373 107.113C45.3842 107.122 44.1531 105.824 44.1531 103.785C44.1531 101.91 45.3379 100.669 47.1152 100.564C49.0775 100.448 50.1883 101.718 50.5215 103.766Z" fill="white"/>
<path d="M50.4752 10.058C50.3364 11.9045 49.3922 13.2028 47.5687 13.347C45.5693 13.5009 44.2457 12.2795 44.1809 10.2215C44.1068 8.15385 45.3657 6.85555 47.3651 6.86517C49.1886 6.8844 50.2161 8.12499 50.4752 10.058Z" fill="white"/>
<path d="M62.342 107.18C60.4166 106.921 59.13 105.815 59.1763 103.766C59.2225 101.737 60.5184 100.487 62.4808 100.554C64.2673 100.621 65.4521 101.862 65.4891 103.728C65.5354 105.786 64.2858 106.892 62.342 107.18Z" fill="white"/>
<path d="M92.3698 91.2063C90.5093 91.0524 89.4726 90.0138 89.5559 88.0327C89.6299 86.2343 90.6759 85.2342 92.3976 85.2534C94.3137 85.2726 95.3133 86.4267 95.2393 88.3885C95.1838 90.2062 94.11 91.0909 92.3698 91.2063Z" fill="white"/>
<path d="M84.6129 14.9435C86.6308 15.0492 87.723 15.9917 87.7045 17.9824C87.686 19.7712 86.7141 20.8195 84.9924 20.8579C83.1041 20.906 82.0581 19.8385 82.0488 17.8766C82.0581 16.059 83.1133 15.1839 84.6129 14.9435Z" fill="white"/>
<path d="M84.9276 93.0335C86.6678 93.1874 87.7045 94.1107 87.7323 95.9283C87.7601 97.8998 86.7234 99.0057 84.8165 98.9865C83.0856 98.9672 82.0859 97.9382 82.0396 96.1302C82.0026 94.1395 83.0763 93.1489 84.9276 93.0335Z" fill="white"/>
<path d="M92.1475 22.7332C94.1654 22.839 95.267 23.7911 95.2484 25.7914C95.2299 27.5898 94.258 28.6477 92.5178 28.6861C90.6202 28.7342 89.5558 27.6571 89.5558 25.676C89.5558 23.8584 90.611 22.964 92.1475 22.7332Z" fill="white"/>
<path d="M27.575 17.992C27.4084 19.7616 26.5105 20.829 24.7703 20.8194C22.8543 20.8098 21.8545 19.6365 21.9749 17.6939C22.0767 15.9051 23.1782 14.9627 24.8999 15.0396C26.6401 15.1165 27.4732 16.2225 27.575 17.992Z" fill="white"/>
<path d="M17.3374 85.263C19.0498 85.4553 20.0587 86.4074 20.031 88.2346C19.9939 90.2446 18.8462 91.264 16.9579 91.1197C15.2177 90.9947 14.329 89.8214 14.4216 88.0231C14.5327 86.1958 15.6157 85.3399 17.3374 85.263Z" fill="white"/>
<path d="M80.0495 10.0195C79.9106 11.6352 79.0961 12.7508 77.541 12.8373C75.81 12.9335 74.7271 11.8371 74.7456 10.0388C74.7641 8.42311 75.7915 7.4037 77.3559 7.38446C78.9387 7.37485 79.781 8.44234 80.0495 10.0195Z" fill="white"/>
<path d="M34.9245 10.1253C34.7023 11.7025 33.8785 12.8085 32.3327 12.8181C30.6295 12.8277 29.565 11.7025 29.6669 9.93297C29.7594 8.36539 30.7961 7.34598 32.3605 7.4133C33.9155 7.48062 34.7208 8.55773 34.9245 10.1253Z" fill="white"/>
<path d="M24.7425 93.072C26.4642 93.197 27.5287 94.101 27.5564 95.9283C27.5842 97.919 26.5012 99.0057 24.5944 98.9288C22.8449 98.8614 21.91 97.7459 21.947 95.9475C21.9841 94.1203 23.0208 93.2163 24.7425 93.072Z" fill="white"/>
<path d="M99.9046 83.2338C98.2477 82.9934 97.1739 82.0509 97.2665 80.2429C97.3498 78.6369 98.3587 77.6175 99.9138 77.6367C101.636 77.6656 102.663 78.7715 102.589 80.5699C102.515 82.1952 101.469 83.0415 99.9046 83.2338Z" fill="white"/>
<path d="M9.51566 77.6271C11.1726 77.8194 12.2463 78.6561 12.3111 80.2526C12.3851 82.0221 11.3206 83.1473 9.61747 83.1088C8.09016 83.08 7.11825 82.0028 7.10899 80.3968C7.09973 78.7523 8.192 77.9637 9.51566 77.6271Z" fill="white"/>
<path d="M17.3373 28.6958C15.4583 28.4842 14.4308 27.561 14.4493 25.753C14.4678 23.7623 15.5971 22.7332 17.4762 22.8583C19.1979 22.9737 20.0957 24.1181 20.0217 25.9068C19.9476 27.7341 18.8183 28.5227 17.3373 28.6958Z" fill="white"/>
<path d="M99.7564 36.3509C98.155 35.9951 97.0998 35.0237 97.2942 33.235C97.4608 31.677 98.5068 30.6768 100.053 30.7923C101.737 30.9269 102.728 32.0713 102.552 33.8408C102.394 35.4276 101.33 36.2547 99.7564 36.3509Z" fill="white"/>
<path d="M34.9522 103.949C34.6745 105.526 33.8229 106.584 32.2493 106.565C30.6849 106.545 29.6668 105.516 29.6575 103.901C29.6482 102.102 30.7405 101.016 32.4622 101.121C33.9988 101.208 34.8133 102.333 34.9522 103.949Z" fill="white"/>
<path d="M77.1892 100.996C78.9942 101.266 80.0772 102.179 80.0124 103.968C79.9476 105.555 78.9479 106.584 77.4021 106.574C75.6989 106.565 74.6807 105.468 74.7178 103.689C74.7641 102.083 75.8748 101.314 77.1892 100.996Z" fill="white"/>
<path d="M12.3574 33.6197C12.0705 35.2161 11.2096 36.2932 9.62679 36.2163C8.07172 36.149 7.08128 35.0718 7.13682 33.4466C7.20161 31.8309 8.22908 30.8019 9.80267 30.8596C11.367 30.9269 12.1816 32.0329 12.3574 33.6197Z" fill="white"/>
<path d="M109.809 56.912C109.651 58.4988 108.865 59.4125 107.421 59.3932C105.977 59.374 105.097 58.4508 105.116 56.9505C105.134 55.4503 106.023 54.5463 107.467 54.5559C108.92 54.5655 109.661 55.5272 109.809 56.912Z" fill="white"/>
<path d="M71.9133 111.373C71.8577 112.806 71.2653 113.633 70.099 113.749C68.7661 113.883 67.8867 113.152 67.8405 111.729C67.7942 110.315 68.5995 109.527 69.9509 109.546C71.1635 109.565 71.7096 110.411 71.9133 111.373Z" fill="white"/>
<path d="M52.5117 111.691C52.7246 110.008 53.5762 109.181 55.0202 109.306C56.492 109.431 57.214 110.469 57.0659 111.95C56.9363 113.268 56.0847 114.037 54.7703 113.999C53.2893 113.96 52.6321 112.989 52.5117 111.691Z" fill="white"/>
<path d="M41.8299 111.633C41.6818 112.96 41.0061 113.787 39.6639 113.729C38.5068 113.672 37.7849 112.902 37.7849 111.7C37.7849 110.325 38.5809 109.527 39.9045 109.575C41.0709 109.613 41.6725 110.421 41.8299 111.633Z" fill="white"/>
<path d="M41.8021 2.3259C41.6448 3.52802 41.0246 4.34547 39.849 4.35509C38.5068 4.3647 37.7108 3.49917 37.8218 2.11432C37.9144 0.93143 38.7012 0.18131 39.8953 0.258246C41.0616 0.325565 41.6633 1.12377 41.8021 2.3259Z" fill="white"/>
<path d="M57.0752 2.31631C56.8901 4.0089 55.983 4.75903 54.5297 4.61477C53.2153 4.48013 52.5118 3.5569 52.5951 2.19128C52.6877 0.604477 53.6596 -0.12641 55.1129 0.0178446C56.4365 0.133249 57.0289 1.08533 57.0752 2.31631Z" fill="white"/>
<path d="M71.9224 2.22973C71.6817 3.72998 70.932 4.5282 69.6176 4.38394C68.4975 4.25892 67.7756 3.4511 67.8589 2.23935C67.9422 0.86412 68.7845 0.113991 70.0989 0.239013C71.2467 0.3448 71.7743 1.22956 71.9224 2.22973Z" fill="white"/>
<path d="M4.21162 41.3517C4.07277 42.5539 3.4526 43.3809 2.2863 43.4002C0.944118 43.429 0.148066 42.5731 0.231373 41.1786C0.305424 39.9861 1.09221 39.2456 2.27703 39.2937C3.46185 39.361 4.06352 40.1592 4.21162 41.3517Z" fill="white"/>
<path d="M109.522 41.1306C109.429 42.6693 108.763 43.4771 107.411 43.4771C106.236 43.4771 105.495 42.7847 105.403 41.5826C105.292 40.2266 105.949 39.3322 107.3 39.2264C108.661 39.1302 109.309 39.9765 109.522 41.1306Z" fill="white"/>
<path d="M4.41537 56.989C4.32281 58.4604 3.55453 59.3163 2.0735 59.2586C0.759092 59.2105 0.0093319 58.393 7.54941e-05 57.0274C-0.00918091 55.4791 0.833152 54.6521 2.31418 54.7001C3.63784 54.7386 4.31355 55.5753 4.41537 56.989Z" fill="white"/>
<path d="M4.21174 72.6551C4.03587 73.8476 3.40645 74.6651 2.23088 74.6458C0.888704 74.6266 0.101906 73.7514 0.231496 72.3666C0.342572 71.1933 1.14787 70.4432 2.33269 70.5394C3.499 70.6355 4.10992 71.4434 4.21174 72.6551Z" fill="white"/>
<path d="M109.513 72.5493C109.429 73.9053 108.763 74.7228 107.411 74.7228C106.236 74.7228 105.495 74.0304 105.403 72.8282C105.292 71.4723 105.949 70.5682 107.3 70.4721C108.633 70.3855 109.355 71.1645 109.513 72.5493Z" fill="white"/>
</svg>
