<svg width="26" height="30" viewBox="0 0 26 30" fill="none" xmlns="http://www.w3.org/2000/svg">
<path d="M4.90146 17.8735C4.91697 17.8542 4.93649 17.838 4.95909 17.8262C5.03273 17.7878 5.10544 17.7697 5.17471 17.7675C6.04452 17.3162 7.07146 17.3909 8.01932 17.7288C9.21848 18.1564 10.3386 19.0185 10.9615 19.8679L10.9616 19.8681C12.3855 21.8146 12.307 24.5651 10.8859 26.458C9.4694 28.3448 6.87656 29.3314 4.54067 28.5699C2.19684 27.8057 0.969141 25.6261 1.07121 23.3048L4.90146 17.8735ZM4.90146 17.8735C3.89916 18.3799 2.84121 18.9465 2.13527 19.8906C1.41135 20.8589 1.12161 22.1409 1.07121 23.3048L4.90146 17.8735ZM1.46878 15.6938L2.10333 2.37907C9.50264 2.61651 16.9127 2.59363 24.323 2.32076C22.6945 6.28844 19.6345 9.61252 15.9008 11.8553L15.9008 11.8554C11.5868 14.4485 6.51403 15.5927 1.46878 15.6938ZM0.946005 16.6374C0.983715 16.6374 1.02222 16.6335 1.06035 16.6254C1.11799 16.6491 1.18254 16.662 1.25245 16.662L1.25491 16.662C6.60562 16.5894 12.041 15.3791 16.6095 12.5501C20.6404 10.0615 23.8778 6.39246 25.5041 1.98807C25.5566 1.84819 25.5423 1.71016 25.4702 1.5987C25.402 1.49323 25.2937 1.42881 25.1855 1.40031C25.1725 1.3969 25.1593 1.39395 25.1458 1.39149C25.0742 1.352 24.9896 1.33153 24.8962 1.33436L24.8944 1.33443C17.2935 1.63956 9.6927 1.67022 2.10346 1.41526C2.07696 1.35315 2.03692 1.29946 1.98636 1.25634C1.89158 1.17552 1.77096 1.14076 1.65831 1.14076C1.54541 1.14076 1.42543 1.17556 1.32926 1.25331C1.25005 1.31736 1.19213 1.40679 1.16908 1.51563C1.16023 1.52395 1.15171 1.53265 1.14353 1.54172C1.05967 1.63476 1.02265 1.75461 1.02265 1.86776C1.02265 1.97651 1.05674 2.09067 1.13083 2.18318L0.464788 16.1586L0.464767 16.1586L0.464677 16.1614C0.459854 16.3115 0.518582 16.4371 0.617954 16.5218C0.712733 16.6026 0.833353 16.6374 0.946005 16.6374ZM2.76907 20.672C3.22045 19.9436 3.93784 19.4598 4.71599 19.0378C4.75694 19.0524 4.80037 19.0618 4.84543 19.0647C4.9733 19.073 5.10289 19.028 5.2074 18.9226C5.84778 18.3008 6.7616 18.2912 7.68021 18.6139C8.5971 18.9359 9.46476 19.5737 9.9455 20.151L9.94597 20.1516C11.22 21.6688 11.3521 23.8963 10.303 25.5662C9.25135 27.24 7.21982 28.1563 5.26535 27.7506C3.3234 27.3474 2.08765 25.69 2.04002 23.7902L2.03997 23.7885C2.00368 22.7296 2.22233 21.5742 2.76907 20.672ZM18.3337 15.5672C18.2981 15.7014 18.3196 15.8274 18.3825 15.9293C17.8995 17.3365 17.4083 18.7424 16.8306 20.1101L16.8304 20.1106C16.6649 20.506 16.4818 20.889 16.2959 21.2779C16.1604 21.5613 16.0234 21.8478 15.8906 22.1445C15.5817 22.8351 15.3107 23.5515 15.1956 24.3104C15.0207 25.4573 15.3721 26.7705 16.1115 27.6896C16.8579 28.6174 18.0109 29.1524 19.4078 28.6909L19.4088 28.6906C20.6803 28.2624 21.0878 27.1154 21.4526 26.0888C21.4861 25.9946 21.5191 25.9015 21.5525 25.8101C21.5526 25.8099 21.5526 25.8097 21.5527 25.8096L23.2744 21.147L23.2745 21.1465C23.4279 20.7275 23.596 20.303 23.766 19.8737C24.2323 18.696 24.7128 17.4824 24.9425 16.2493L24.9426 16.2485C25.1585 15.0625 25.0496 13.7854 24.2498 12.7778C23.4437 11.7624 22.0794 11.4014 20.8505 11.9539C19.3313 12.6292 18.7067 14.1765 18.3338 15.5667L18.3337 15.5672ZM19.4668 15.2557C19.4574 15.2413 19.4472 15.2277 19.4365 15.2149C19.7434 14.2545 20.2009 13.359 21.0962 12.8814L21.0965 12.8812C21.6554 12.5817 22.2111 12.5814 22.6854 12.7829C23.1632 12.9858 23.5684 13.3981 23.806 13.9392C24.2828 15.0252 23.9746 16.2758 23.5775 17.4347C23.3272 18.165 23.0482 18.9119 22.7668 19.6655C22.603 20.1041 22.4383 20.5449 22.278 20.9861C22.2779 20.9861 22.2779 20.9862 22.2779 20.9863L21.0146 24.4198L21.0145 24.4199C20.9331 24.6416 20.8559 24.8957 20.7763 25.1577C20.7628 25.202 20.7493 25.2464 20.7357 25.291C20.6406 25.6025 20.5394 25.9233 20.4184 26.2292C20.1737 26.8481 19.8618 27.3687 19.3994 27.6257L19.3992 27.6258C18.3247 28.2246 17.0374 27.6145 16.4747 26.5883C15.9181 25.5731 16.0836 24.2992 16.5096 23.198L16.5096 23.198C16.7426 22.5957 17.0128 22.0072 17.287 21.4149C17.3019 21.3828 17.3168 21.3506 17.3317 21.3185C17.5906 20.7594 17.8516 20.196 18.0821 19.6213L18.0821 19.6211C18.521 18.5235 18.9072 17.4 19.2907 16.2844C19.3637 16.0722 19.4366 15.8602 19.5097 15.6487L19.5105 15.6465C19.5578 15.5039 19.5392 15.366 19.4668 15.2557Z" fill="white" stroke="white" stroke-width="0.362033" stroke-linejoin="round"/>
</svg>
