<svg width="30" height="28" viewBox="0 0 30 28" fill="none" xmlns="http://www.w3.org/2000/svg">
<path d="M20.8308 2.77992L8.24261 2.58375L8.1847 1.43453C8.18294 1.25701 8.10717 1.11115 7.98877 1.01337C7.87427 0.918821 7.73057 0.877234 7.59651 0.877234C7.46279 0.877234 7.31806 0.91876 7.20502 1.0172C7.08599 1.12084 7.01891 1.27371 7.02973 1.45349L7.08578 2.56573L1.56633 2.47972L1.56634 2.47969H1.56281C1.4096 2.47969 1.26267 2.54055 1.15433 2.64889C1.13843 2.66479 1.12354 2.68153 1.10972 2.699C1.02801 2.72597 0.948767 2.77155 0.883827 2.84022C0.786385 2.94327 0.736645 3.08238 0.746371 3.23959C0.746365 3.23948 0.746358 3.23937 0.746352 3.23926L20.8308 2.77992ZM20.8308 2.77992C20.8226 2.14394 20.8091 1.50778 20.7903 0.871419M20.8308 2.77992L1.43597 9.55254L7.44037 9.60217L7.47921 10.3729C7.48088 10.5238 7.54154 10.6681 7.64837 10.775C7.75671 10.8833 7.90364 10.9442 8.05685 10.9442C8.21006 10.9442 8.35699 10.8833 8.46533 10.775C8.57366 10.6666 8.63452 10.5197 8.63452 10.3665H8.63481L8.63424 10.3551L8.59678 9.61173L20.7099 9.71184C20.6999 9.92137 20.6892 10.1309 20.6781 10.3404L20.6777 10.3404V10.3525C20.6777 10.528 20.7474 10.6756 20.8635 10.7764C20.9752 10.8732 21.1167 10.9161 21.2501 10.9161C21.3837 10.9161 21.5248 10.8732 21.6371 10.7783C21.753 10.6804 21.8267 10.5363 21.8329 10.3623C21.8443 10.1487 21.8551 9.93504 21.8653 9.72139L28.6468 9.77744H28.6486C28.8018 9.77744 28.9488 9.71658 29.0571 9.60824C29.1505 9.51484 29.2086 9.39274 29.2229 9.26264C29.2438 9.2023 29.2548 9.13833 29.2548 9.07325L29.2548 9.07149C29.2393 7.07407 28.9575 5.08764 28.4171 3.16467L28.4165 3.16254C28.3952 3.08971 28.3598 3.02178 28.3123 2.96263C28.2649 2.90349 28.2062 2.85426 28.1397 2.81778C28.0731 2.7813 28.0001 2.75828 27.9247 2.75004C27.8493 2.74179 27.773 2.74848 27.7001 2.76972L27.7515 2.94589L27.7001 2.76972C27.6273 2.79096 27.5594 2.82634 27.5002 2.87384L27.5084 2.88397L27.5002 2.87384C27.4962 2.87706 27.4922 2.88034 27.4883 2.88366L21.9865 2.79792C21.9783 2.15243 21.9646 1.50675 21.9455 0.860875C21.9445 0.683764 21.8708 0.537132 21.7529 0.438246C21.6394 0.342941 21.4964 0.300951 21.3626 0.300951C21.2289 0.300951 21.0854 0.342921 20.9726 0.440169C20.8543 0.542144 20.7848 0.69264 20.7903 0.871419M20.7903 0.871419C20.7903 0.871492 20.7903 0.871564 20.7903 0.871636L21.0165 0.864569L20.7903 0.87126C20.7903 0.871313 20.7903 0.871366 20.7903 0.871419ZM0.873388 9.10604C0.897675 9.21019 0.950633 9.30648 1.0275 9.38334C1.13558 9.49143 1.28209 9.55226 1.43491 9.55254L1.4341 9.55253L0.873388 9.10604ZM27.4063 27.6989L27.4063 27.6989H27.4119C27.6767 27.6989 27.8605 27.5427 27.9358 27.3451C27.9965 27.1858 27.9886 26.9966 27.9053 26.8396C27.911 22.0097 28.0801 17.1809 28.4526 12.3799C28.4531 12.374 28.4533 12.3682 28.4533 12.3624C28.4533 12.145 28.3532 11.9717 28.1935 11.8749C28.0546 11.7907 27.8877 11.7745 27.7389 11.8138C19.1362 11.9723 10.5382 12.0048 1.94489 11.9113L1.94489 11.9113H1.94243C1.78922 11.9113 1.64229 11.9722 1.53395 12.0805C1.43802 12.1764 1.37931 12.3026 1.36713 12.4367C1.24868 12.5349 1.17067 12.6862 1.18198 12.8798C1.36905 17.4271 1.36902 21.9697 1.1819 26.5076L1.1817 26.5076V26.5169C1.1817 26.6701 1.24256 26.817 1.3509 26.9254C1.45923 27.0337 1.60617 27.0946 1.75938 27.0946C1.81722 27.0946 1.87417 27.0859 1.92848 27.0693L27.4063 27.6989ZM8.30088 3.74006L20.8399 3.93546C20.8443 5.47705 20.8174 7.01753 20.7593 8.55688L8.53853 8.45588L8.30088 3.74006ZM21.9146 8.56643C21.9725 7.02988 21.9994 5.49222 21.9953 3.95346L27.4479 4.03843C27.8291 5.53657 28.0447 7.07212 28.0908 8.61747L21.9146 8.56643ZM1.99965 8.40184C1.99914 6.80038 1.99315 5.19794 1.92217 3.64066L7.14405 3.72204L7.38212 8.44633L1.99965 8.40184ZM2.34671 13.0705C10.6437 13.1482 18.945 13.1172 27.2507 12.9775C26.9173 17.4798 26.7501 22.0254 26.749 26.5271L2.36413 25.9245C2.54918 21.644 2.54337 17.3593 2.34671 13.0705Z" fill="white" fill-opacity="0.7" stroke="#272727" stroke-width="0.452541" stroke-linejoin="round"/>
</svg>
