<svg width="34" height="26" viewBox="0 0 34 26" fill="none" xmlns="http://www.w3.org/2000/svg">
<path d="M33.1303 1.49085C33.1307 1.48524 33.1309 1.47962 33.1309 1.47399C33.1309 1.31234 33.0734 1.17205 32.9708 1.0704C32.8953 0.99557 32.8028 0.948914 32.7078 0.926457C32.603 0.834896 32.4681 0.783983 32.328 0.783983L32.3276 0.783984L2.0089 0.840209V1.06648L2.00848 0.84021L2.00867 0.840209C1.85559 0.840269 1.70867 0.901095 1.60036 1.00941C1.57932 1.03045 1.56007 1.05295 1.54271 1.07667C1.4981 1.06736 1.45256 1.06411 1.40689 1.0669C1.30244 1.07328 1.20706 1.11042 1.1273 1.16441C1.01318 1.17033 0.896664 1.20668 0.799035 1.27989C0.665478 1.38006 0.582582 1.53871 0.588276 1.73296C0.588288 1.73337 0.588301 1.73379 0.588314 1.73421L1.05209 23.559C1.0528 23.7113 1.11364 23.8571 1.2213 23.9648C1.32962 24.0731 1.47652 24.134 1.62975 24.134C1.68574 24.134 1.74089 24.1258 1.79361 24.1102C12.0089 24.5617 22.2288 24.9087 32.4532 25.1512C32.555 25.2013 32.6681 25.2211 32.7747 25.2151C32.8927 25.2085 33.019 25.1691 33.1206 25.0842C33.165 25.0589 33.2061 25.0276 33.2428 24.9909C33.3511 24.8826 33.412 24.7357 33.412 24.5824C33.412 24.4375 33.3576 24.2983 33.2601 24.192C32.6092 16.6408 32.5658 9.0494 33.1303 1.49085ZM1.75531 1.17456C1.69909 1.23314 1.66508 1.30923 1.65862 1.38975C1.5919 1.32317 1.51756 1.29395 1.44503 1.29228L1.75531 1.17456ZM2.61148 2.03577L31.5653 1.94181C27.0821 6.51453 22.001 10.46 16.46 13.6709C11.5064 10.2119 6.87192 6.31795 2.61148 2.03577ZM16.0837 14.9199C16.2363 15.0057 16.4338 15.0235 16.6173 14.9089C22.1968 11.7372 27.3207 7.8277 31.8514 3.28765C31.4259 10.1834 31.5041 17.1015 32.0856 23.9869C22.1229 23.7484 12.1731 23.4107 2.2362 22.974L1.76921 2.83123C6.08763 7.1746 10.7885 11.1211 15.8151 14.6227C15.8705 14.7446 15.9645 14.8528 16.0837 14.9199Z" fill="white" stroke="white" stroke-width="0.452541" stroke-linejoin="round"/>
</svg>
