<svg width="30" height="30" viewBox="0 0 30 30" fill="none" xmlns="http://www.w3.org/2000/svg">
<g filter="url(#filter0_d_323_92)">
<path fill-rule="evenodd" clip-rule="evenodd" d="M15.5324 3.41263C14.7654 2.54279 13.8378 1.82794 12.7972 1.31204C11.2599 0.439224 9.52655 -0.0111829 7.76717 0.00495153C6.95567 -0.0379948 6.15368 0.199409 5.49078 0.678808C4.82788 1.15821 4.3428 1.8516 4.11392 2.64694C3.97565 3.5692 4.05706 4.51187 4.35127 5.39527C4.62349 6.21266 5.07049 6.95708 5.65891 7.57511C3.94467 7.60387 2.23014 7.63905 0.515308 7.68066C0.373261 7.68066 0.277471 7.75586 0.227935 7.8568C0.162795 7.91238 0.122861 7.99736 0.133374 8.11175C0.290275 9.82106 0.249081 11.5433 0.0106734 13.2428C-0.0110936 13.3312 0.00069061 13.4247 0.0436625 13.5047C0.0866343 13.5846 0.157619 13.645 0.242408 13.6738C0.329176 13.6996 0.422454 13.6892 0.501703 13.6449C0.552098 13.6167 0.594202 13.5763 0.624689 13.5278C0.679836 13.5877 0.761327 13.6246 0.869737 13.6179C5.37751 13.3727 9.88528 13.2174 14.3931 13.1522C14.391 13.172 14.3905 13.193 14.3918 13.2151L14.5333 16.8715C10.7172 16.86 6.90106 16.926 3.08497 17.0693C3.1016 15.9976 3.13106 14.926 3.17336 13.8547C3.17336 13.4097 2.50542 13.4097 2.49178 13.8547C2.28493 19.0937 2.38507 24.3407 2.79168 29.5675C2.79168 29.6217 2.80237 29.6694 2.82108 29.7107C2.83768 29.8729 2.94598 30.0174 3.14597 29.9983C11.5405 29.2082 19.985 29.1338 28.3917 29.7758C28.7637 29.7758 28.8185 29.2903 28.5559 29.1302C27.6706 24.0125 27.0742 18.8472 26.7696 13.6597C26.7696 13.2147 26.0607 13.2147 26.088 13.6597C26.1541 14.8254 26.235 15.9901 26.3305 17.1533C22.6253 16.9874 18.9201 16.8944 15.2149 16.8743L15.0734 13.2151C15.0734 13.1896 15.0711 13.1656 15.0667 13.1431C19.8765 13.083 24.6863 13.1254 29.4961 13.2703C29.642 13.2703 29.7391 13.194 29.7874 13.092C29.8292 13.0747 29.8677 13.0489 29.9002 13.0157C29.9641 12.9505 30 12.8621 30 12.7699L29.4571 8.06246C29.4737 8.02111 29.4824 7.97649 29.4824 7.93095C29.4824 7.83876 29.4465 7.75034 29.3826 7.68514C29.3187 7.61995 29.232 7.58332 29.1416 7.58332C27.3828 7.55254 25.6237 7.52854 23.8642 7.51132C25.2233 5.46589 27.0181 0.226373 23.0891 0.11619C21.4306 0.158781 19.8035 0.5868 18.3317 1.36766C17.2723 1.85797 16.3223 2.55419 15.5324 3.41263ZM4.99337 5.03989C5.24897 5.85377 5.70677 6.58627 6.32223 7.16612L6.29496 7.23565C6.38362 7.33901 6.39775 7.45838 6.3665 7.5636C11.9804 7.4752 17.5911 7.45571 23.1987 7.50513C23.1672 7.4217 23.173 7.32273 23.239 7.22175C24.1813 5.85163 24.7204 4.23552 24.793 2.56351C24.8066 0.463823 22.6801 0.714117 21.317 1.04784C19.8868 1.38268 18.5286 1.98115 17.3093 2.8138C16.8273 3.14807 16.3822 3.53366 15.9812 3.96379C16.1631 4.20585 16.3334 4.45778 16.4914 4.71881C17.0094 5.71999 16.8322 7.48595 15.2918 7.40252C13.7514 7.31909 14.0786 5.40017 14.6511 4.53804C14.8003 4.31288 14.9589 4.0953 15.1264 3.88581C14.4303 3.15769 13.5568 2.53685 13.138 2.27149C11.8337 1.40387 10.3499 0.856507 8.80318 0.6724C7.24918 0.491633 5.42253 0.811449 4.86364 2.52179C4.69306 3.35851 4.73777 4.22602 4.99337 5.03989ZM14.5601 17.5668C10.7321 17.555 6.90403 17.621 3.07598 17.7649C3.03629 21.6047 3.1613 25.4449 3.4508 29.2747C7.34105 28.9166 11.2418 28.7122 15.1443 28.6615C15.0486 28.6101 14.978 28.5135 14.978 28.3717L14.5601 17.5668ZM15.2418 17.5697C18.9577 17.5902 22.6736 17.684 26.3896 17.8513C26.7163 21.5984 27.1952 25.3307 27.8254 29.0384C23.7253 28.741 19.6167 28.614 15.5098 28.6572C15.5999 28.6048 15.6638 28.5096 15.6596 28.3717L15.2418 17.5697ZM15.5833 4.41882C15.3511 4.69728 15.1524 5.00341 14.9919 5.33064C14.8432 5.60597 14.7904 5.92457 14.842 6.23448C15.1873 6.76288 15.5281 6.8324 15.8643 6.44305C16.3615 5.8533 16.1084 5.11596 15.5833 4.41882ZM0.869737 12.9226C0.817649 12.9226 0.771586 12.9329 0.731618 12.9511C0.922808 11.4316 0.958109 9.8958 0.836822 8.36849C10.1491 8.15533 19.4701 8.12351 28.7998 8.27303L29.2953 12.569C19.8111 12.2893 10.3359 12.4071 0.869737 12.9226Z" fill="white" fill-opacity="0.7" shape-rendering="crispEdges"/>
<path d="M6.54526 7.20432C6.56713 7.24664 6.5829 7.29007 6.59313 7.33377C9.18102 7.29389 11.7682 7.26865 14.3548 7.25804C14.3323 7.23586 14.3107 7.21277 14.29 7.18881C14.0708 6.93477 13.975 6.60708 13.9533 6.27709C13.9105 5.6236 14.1525 4.87999 14.4625 4.41309L6.54526 7.20432ZM6.54526 7.20432C6.5579 7.1306 6.53328 7.05409 6.47739 7.00144C5.89039 6.4484 5.45334 5.74935 5.20924 4.9721C4.96644 4.19899 4.92288 3.37507 5.08275 2.57983C5.33909 1.80773 5.87592 1.3495 6.53992 1.09971C7.21532 0.845627 8.02094 0.80924 8.77671 0.897117C10.2878 1.07703 11.7378 1.61186 13.0127 2.45989L13.0127 2.45994L13.0169 2.46262C13.3996 2.70514 14.1725 3.25286 14.826 3.90267C14.6994 4.06818 14.5782 4.23836 14.4625 4.41298L6.54526 7.20432ZM22.97 7.27688C20.7947 7.25844 18.6189 7.25037 16.4427 7.25266C16.6548 7.05727 16.7959 6.80477 16.8796 6.53428C17.0708 5.91634 16.9761 5.16335 16.6923 4.61483C16.69 4.61036 16.6876 4.60596 16.685 4.60165C16.5564 4.38933 16.42 4.18287 16.2759 3.98267C16.6314 3.61869 17.0203 3.28966 17.4375 3.00024C18.6337 2.18347 19.966 1.59654 21.3686 1.26817L21.3708 1.26762C22.0493 1.10151 22.8767 0.968231 23.5214 1.11386C23.838 1.18535 24.0944 1.32055 24.2724 1.53748C24.4491 1.75281 24.5692 2.07392 24.5668 2.55791C24.4953 4.18631 23.9699 5.75977 23.0526 7.09353L23.0525 7.09349L23.0496 7.09796C23.0117 7.15602 22.9853 7.21625 22.97 7.27688ZM0.882029 13.8438C1.34553 13.8186 1.80903 13.7944 2.27254 13.771L2.49178 13.8547L2.26569 13.8457C2.26568 13.846 2.26567 13.8463 2.26565 13.8466C2.0586 19.0916 2.15872 24.3445 2.56549 29.5773C2.56653 29.6449 2.5784 29.7093 2.6006 29.7691C2.61812 29.8796 2.66577 29.9937 2.75495 30.0827C2.85907 30.1865 3.00351 30.2391 3.16717 30.2236C11.5489 29.4347 19.9806 29.3604 28.3744 30.0014C28.3802 30.0019 28.3859 30.0021 28.3917 30.0021C28.537 30.0021 28.6651 29.9534 28.7626 29.8656C28.8577 29.7801 28.9123 29.6678 28.9339 29.556C28.9694 29.3725 28.9204 29.1524 28.764 29.0056C27.8887 23.9264 27.2983 18.8003 26.9958 13.6523C26.9949 13.5709 26.9784 13.4961 26.9494 13.4295C27.796 13.4486 28.6426 13.4709 29.4893 13.4964L29.4893 13.4965H29.4961C29.7001 13.4965 29.8566 13.4004 29.9498 13.2628C29.9904 13.2382 30.028 13.2085 30.0618 13.1741C30.1676 13.0661 30.2263 12.9206 30.2263 12.7699C30.2263 12.7612 30.2258 12.7526 30.2248 12.744L29.6876 8.08606C29.7015 8.03597 29.7087 7.98381 29.7087 7.93095C29.7087 7.78021 29.65 7.63472 29.5442 7.52674C29.4387 7.41916 29.2949 7.35767 29.1439 7.35706C27.5195 7.32863 25.8948 7.30599 24.2698 7.28913C24.9065 6.21077 25.5675 4.56559 25.6852 3.10624C25.7509 2.293 25.6506 1.50359 25.2465 0.904068C24.8337 0.291486 24.1329 -0.0808974 23.0954 -0.109991L23.0954 -0.110318L23.0833 -0.110006C21.3917 -0.0665645 19.7322 0.369532 18.231 1.1649C17.2216 1.63294 16.3094 2.2832 15.5359 3.07954C14.7847 2.27212 13.8942 1.60422 12.9034 1.11214C11.335 0.222942 9.567 -0.236606 7.77205 -0.221371C6.91095 -0.265318 6.06076 -0.0126284 5.35819 0.495459C4.65378 1.00487 4.13917 1.74103 3.89647 2.58436C3.89373 2.59389 3.89162 2.60358 3.89015 2.61339C3.74661 3.57084 3.8311 4.5495 4.13659 5.46676C4.36637 6.15671 4.71615 6.79683 5.16748 7.35722C3.61599 7.38435 2.06425 7.41675 0.512271 7.4544C0.296147 7.45543 0.135736 7.56681 0.0464478 7.71713C-0.0546743 7.82128 -0.107227 7.9662 -0.0919474 8.13246C0.0630496 9.82102 0.0227434 11.5223 -0.211996 13.2013C-0.242995 13.3402 -0.223192 13.4861 -0.155634 13.6118C-0.0859673 13.7414 0.0298166 13.8406 0.16961 13.8881L0.169557 13.8882L0.177882 13.8907C0.323412 13.934 0.479786 13.9164 0.612168 13.8424C0.628071 13.8335 0.643461 13.8239 0.658304 13.8136C0.726755 13.838 0.802637 13.8487 0.883699 13.8437L0.869737 13.6179L0.882029 13.8438ZM3.39963 13.8547C3.39963 13.8066 3.39443 13.7605 3.38446 13.7169C6.98027 13.5479 10.5761 13.4362 14.1719 13.3817L14.298 16.6446C10.6371 16.6367 6.97609 16.6999 3.31513 16.8344C3.33226 15.844 3.36037 14.8536 3.39946 13.8636L3.39963 13.8636V13.8547ZM15.3057 13.3665C18.8401 13.3248 22.3745 13.3385 25.9088 13.4075C25.873 13.4859 25.8562 13.5757 25.8621 13.6732C25.9235 14.7551 25.9975 15.8361 26.0842 16.9159C22.5337 16.7601 18.9832 16.6713 15.4327 16.6493L15.3057 13.3665ZM26.1815 18.0685C26.4998 21.6597 26.9577 25.237 27.5543 28.7921C23.6689 28.5179 19.7762 28.3964 15.8846 28.4275C15.886 28.4071 15.8864 28.3862 15.8857 28.3648L15.8857 28.363L15.4771 17.7974C19.0452 17.82 22.6134 17.9104 26.1815 18.0685ZM15.191 5.43816L15.1911 5.43825L15.195 5.4303C15.3035 5.20928 15.4302 4.99843 15.5736 4.79998C15.7329 5.04893 15.8417 5.28987 15.885 5.51417C15.9404 5.80048 15.8906 6.06025 15.6922 6.29619C15.5499 6.46057 15.4571 6.47249 15.4018 6.46122C15.3278 6.44613 15.2096 6.37092 15.0584 6.151C15.0273 5.9052 15.0737 5.65541 15.191 5.43816ZM3.6593 29.0284C3.3878 25.3529 3.26803 21.6678 3.30018 17.983C6.98094 17.8475 10.6617 17.7839 14.3424 17.7925L14.7517 28.3766C14.7519 28.3985 14.7532 28.4199 14.7555 28.4408C11.0524 28.4985 7.35122 28.6944 3.6593 29.0284ZM29.0405 12.3352C19.6819 12.0664 10.3319 12.1845 0.990695 12.6895C1.14416 11.3287 1.17411 9.95611 1.08007 8.58929C10.2442 8.38257 19.4168 8.35151 28.5978 8.49611L29.0405 12.3352Z" stroke="#272727" stroke-width="0.452541" stroke-linejoin="round" shape-rendering="crispEdges"/>
</g>
<defs>
<filter id="filter0_d_323_92" x="-4.45251" y="-0.452515" width="38.905" height="38.905" filterUnits="userSpaceOnUse" color-interpolation-filters="sRGB">
<feFlood flood-opacity="0" result="BackgroundImageFix"/>
<feColorMatrix in="SourceAlpha" type="matrix" values="0 0 0 0 0 0 0 0 0 0 0 0 0 0 0 0 0 0 127 0" result="hardAlpha"/>
<feOffset dy="4"/>
<feGaussianBlur stdDeviation="2"/>
<feComposite in2="hardAlpha" operator="out"/>
<feColorMatrix type="matrix" values="0 0 0 0 0 0 0 0 0 0 0 0 0 0 0 0 0 0 0.25 0"/>
<feBlend mode="normal" in2="BackgroundImageFix" result="effect1_dropShadow_323_92"/>
<feBlend mode="normal" in="SourceGraphic" in2="effect1_dropShadow_323_92" result="shape"/>
</filter>
</defs>
</svg>
