<svg width="38" height="36" viewBox="0 0 38 36" fill="none" xmlns="http://www.w3.org/2000/svg">
<path d="M13.3216 8.34084C13.1129 7.79685 12.8164 7.28771 12.4415 6.83458C12.4375 6.82969 12.4336 6.82462 12.43 6.8194C11.72 5.79687 10.8515 4.89787 9.85958 4.15501L6.03043 4.03512L6.03042 4.03512L13.3216 8.34084ZM13.3216 8.34084C13.0408 8.40201 12.7712 8.51055 12.5249 8.6628C12.5184 8.66682 12.5121 8.67117 12.506 8.67584C12.11 8.98011 11.7665 9.34413 11.487 9.75314C11.1374 10.0226 10.8553 10.3746 10.6684 10.7818C10.3854 11.3988 10.3413 12.0987 10.5445 12.7463C10.546 12.7512 10.5477 12.756 10.5496 12.7608C10.8196 13.4525 11.2824 14.0521 11.8829 14.4886C12.4812 14.9235 13.1912 15.1783 13.9293 15.2232C14.3221 15.2752 14.7215 15.2393 15.0988 15.118C15.4788 14.9957 15.8266 14.7899 16.1166 14.5156C16.1218 14.5107 16.1268 14.5055 16.1315 14.5001C16.6105 13.9522 16.8878 13.2572 16.9177 12.5303C17.0264 11.7581 16.9058 10.9709 16.5707 10.2665C16.234 9.55858 15.6957 8.96588 15.0233 8.5628C15.0185 8.55996 15.0137 8.55729 15.0088 8.5548C14.8372 8.46838 14.6572 8.402 14.4722 8.35642C13.9232 6.76447 12.9805 5.33981 11.7356 4.21375L20.5509 4.48975C23.9293 8.25567 27.4677 11.8735 31.156 15.3334L14.7959 29.1176C11.7958 25.6612 8.87062 22.1417 6.02048 18.559C6.0257 18.5208 6.02703 18.4814 6.02452 18.4412L6.02448 18.4405C5.70978 13.6435 5.70201 8.83134 6.00116 4.03355L13.3216 8.34084ZM15.7633 11.9357L15.763 11.9357V11.9476C15.763 12.4508 15.6873 12.965 15.484 13.3605C15.2873 13.7434 14.9731 14.015 14.4638 14.0697C13.9597 14.1117 13.4535 14.0194 12.9965 13.8024C12.5394 13.5852 12.1479 13.2509 11.8618 12.8334C11.7357 12.642 11.6517 12.4258 11.6156 12.1994C11.611 12.1705 11.6072 12.1416 11.6041 12.1126C11.8323 12.204 12.0763 12.2561 12.3257 12.2647C12.8255 12.282 13.3155 12.1235 13.7104 11.8168L13.7106 11.8171L13.7195 11.8094C14.1096 11.4727 14.4037 11.039 14.5722 10.5521C14.6586 10.3025 14.7104 10.0436 14.7272 9.78234C14.9701 9.95619 15.1813 10.1735 15.3491 10.4252C15.6463 10.871 15.7916 11.4007 15.7633 11.9357ZM4.65505 8.54009C3.56932 7.76131 2.75142 6.65325 2.33098 5.36896L2.33112 5.36891L2.32837 5.36144C2.06619 4.64664 2.00594 3.87347 2.1542 3.12674C2.25233 2.72505 2.49833 2.37506 2.84318 2.14668C3.18925 1.9175 3.60924 1.82778 4.01875 1.89555C4.02377 1.89638 4.02882 1.89704 4.03388 1.89753C5.35083 2.02509 6.63347 2.3771 7.82705 2.9358L6.04458 2.88L6.04458 2.87989H6.0375C5.87898 2.87989 5.7419 2.9367 5.64157 3.03583C5.6216 3.05557 5.60356 3.0765 5.58737 3.09836C5.47878 3.07555 5.36555 3.08362 5.265 3.11751C5.06057 3.18641 4.88734 3.36795 4.8701 3.6394C4.76302 5.27161 4.69134 6.90555 4.65505 8.54009ZM18.9083 35.3117C19.0038 35.3256 19.0954 35.311 19.1763 35.2792C19.1906 35.2781 19.205 35.2763 19.2193 35.274C19.2783 35.29 19.343 35.2818 19.3976 35.248C22.9511 33.0489 26.3707 30.6406 29.6384 28.0358C31.2257 26.7716 32.8032 25.476 34.2838 24.0946C35.6545 23 36.6081 21.4682 36.9854 19.755L36.9858 19.7551L36.9879 19.7413C36.9913 19.7196 36.9936 19.6981 36.9948 19.6767C37.0527 19.5922 37.0921 19.4899 37.0951 19.3778C37.0994 19.221 37.0315 19.0717 36.8973 18.9581C31.4103 14.1847 26.2253 9.07467 21.3725 3.65773L21.3725 3.65772L21.3707 3.65582C21.3591 3.64316 21.3471 3.63105 21.3348 3.61952C21.2443 3.46453 21.0802 3.35074 20.8598 3.34385L10.2035 3.01021C8.5905 1.85808 6.72775 1.09621 4.76231 0.789832C4.24571 0.656393 3.7047 0.647856 3.18406 0.765002C2.65958 0.883008 2.17108 1.1251 1.75953 1.47097C1.7498 1.47915 1.74077 1.48814 1.73255 1.49783C1.41667 1.87026 1.18249 2.30489 1.04525 2.77358C0.908398 3.24094 0.870941 3.73177 0.935298 4.21446C1.05506 5.42917 1.47537 6.59497 2.15828 7.60669C2.79573 8.55106 3.64327 9.33343 4.63309 9.8932C4.60441 12.6899 4.6793 15.4873 4.85777 18.2798C4.73591 18.4731 4.70048 18.7515 4.89068 18.9896C9.27914 24.5033 13.8457 29.8857 18.5905 35.1369L18.5913 35.1377C18.6796 35.2345 18.789 35.2943 18.9083 35.3117ZM19.1367 34.0165C17.9315 32.684 16.7378 31.3417 15.5557 29.9897L32.0149 16.1337C33.2731 17.2982 34.5484 18.4446 35.8404 19.5722C35.4232 21.1646 34.4722 22.5671 33.1443 23.5441C33.1374 23.5493 33.1307 23.5548 33.1243 23.5607C31.7258 24.8614 30.1858 26.1075 28.6537 27.3304C25.6094 29.7362 22.432 31.9684 19.1367 34.0165ZM12.8654 9.87923C13.0888 9.65637 13.3359 9.50272 13.6167 9.45111C13.6201 9.47296 13.6234 9.49483 13.6265 9.51674C13.6214 9.959 13.394 10.4924 13.0549 10.8221C12.886 10.9862 12.7024 11.0873 12.5199 11.1138C12.3895 11.1327 12.2465 11.1155 12.0928 11.0391C12.1684 10.8887 12.2498 10.7353 12.3384 10.5854C12.3888 10.553 12.441 10.5235 12.4949 10.4969C12.7877 10.3833 12.8893 10.114 12.8654 9.87923Z" fill="white" stroke="#272727" stroke-width="0.452541" stroke-linejoin="round"/>
</svg>
