<svg width="34" height="28" viewBox="0 0 34 28" fill="none" xmlns="http://www.w3.org/2000/svg">
<mask id="path-1-outside-1_210_268" maskUnits="userSpaceOnUse" x="-0.0194244" y="0.16748" width="34" height="28" fill="black">
<rect fill="white" x="-0.0194244" y="0.16748" width="34" height="28"/>
<path fill-rule="evenodd" clip-rule="evenodd" d="M13.7802 9.83004C12.8354 10.3318 12.0518 11.0937 11.5236 12.0276C10.9581 13.0274 10.7124 14.1765 10.8196 15.3202C10.9268 16.4638 11.3817 17.5472 12.1231 18.4246C12.8645 19.302 13.8568 19.9312 14.9666 20.2276C16.1677 20.536 17.4329 20.4846 18.605 20.0798C19.7771 19.6749 20.8043 18.9345 21.559 17.9505C22.2935 17.0313 22.7212 15.9048 22.7817 14.7297C22.8422 13.5546 22.5325 12.3902 21.8963 11.4004C21.1517 10.3268 20.0256 9.57775 18.7477 9.30599C17.1869 8.92087 15.5516 8.95969 14.0108 9.41844C13.8128 9.48444 13.7481 9.66821 13.7802 9.83004ZM14.5556 9.9973C15.6308 9.72665 16.7511 9.67745 17.8481 9.85418C18.9877 9.95912 20.0557 10.4559 20.8702 11.2598C21.5687 12.0026 22.009 12.9509 22.1255 13.9638C22.242 14.9768 22.0285 16.0003 21.5168 16.8822C20.9851 17.8246 20.1971 18.5968 19.2442 19.1093C18.2913 19.6219 17.2126 19.8537 16.1333 19.7778C15.0526 19.6842 14.0326 19.2381 13.2303 18.508C12.428 17.778 11.8878 16.8045 11.6929 15.7374C11.498 14.6703 11.6592 13.5688 12.1517 12.6023C12.6441 11.6358 13.4406 10.8579 14.4184 10.3883C14.5864 10.2983 14.611 10.1367 14.5556 9.9973Z"/>
<path fill-rule="evenodd" clip-rule="evenodd" d="M6.1673 8.63139C5.87111 8.63103 5.58615 8.74472 5.37154 8.94886C5.15693 9.153 5.02915 9.43193 5.0147 9.72777C4.9987 10.0343 5.08346 10.3376 5.25605 10.5914C5.42865 10.8452 5.67958 11.0356 5.97052 11.1334C6.99662 11.5269 8.44439 10.796 8.2476 9.5872C8.20672 9.30039 8.063 9.03819 7.84321 8.84943C7.62342 8.66067 7.34254 8.55821 7.05283 8.56111C6.95964 8.56111 6.87025 8.59813 6.80435 8.66403C6.76462 8.70376 6.73538 8.75203 6.71843 8.80452C6.7133 8.79345 6.70763 8.78258 6.70143 8.77195C6.64924 8.68248 6.56365 8.61741 6.46348 8.59105C6.36331 8.56468 6.25677 8.5792 6.1673 8.63139ZM6.74178 9.06813L6.74357 9.06104C6.76128 9.09495 6.78415 9.12625 6.81162 9.15373C6.87616 9.21827 6.9618 9.25739 7.05283 9.26391H7.26368L7.34801 9.34825C7.35069 9.38099 7.35069 9.4139 7.34801 9.44664C7.34137 9.4696 7.34137 9.49397 7.34801 9.51692V9.64343L7.50263 10.037V10.1354C7.47736 10.1749 7.44379 10.2085 7.40424 10.2338H7.30585L7.08094 10.3181C6.93233 10.3463 6.77976 10.3463 6.63115 10.3181C6.53882 10.3098 6.44856 10.286 6.36409 10.2478C6.23825 10.1545 6.1488 10.0204 6.11108 9.86833C6.10971 9.84492 6.10971 9.82145 6.11108 9.79805V9.65749H6.20947C6.30267 9.65749 6.39204 9.62046 6.45794 9.55456C6.52384 9.48866 6.56087 9.39928 6.56087 9.30608C6.65034 9.25389 6.71542 9.1683 6.74178 9.06813Z"/>
<path d="M28.7132 9.6996H25.143C25.0498 9.6996 24.9604 9.66258 24.8945 9.59668C24.8286 9.53078 24.7916 9.44139 24.7916 9.3482C24.7916 9.255 24.8286 9.16562 24.8945 9.09972C24.9604 9.03382 25.0498 8.99679 25.143 8.99679H28.7132C29.163 9.01085 29.163 9.6996 28.7132 9.6996Z"/>
<path d="M20.0406 6.00267C17.2294 5.81526 14.4182 5.75435 11.607 5.81994C11.5138 5.81994 11.4244 5.78292 11.3585 5.71702C11.2926 5.65112 11.2556 5.56174 11.2556 5.46854C11.2556 5.37534 11.2926 5.28596 11.3585 5.22006C11.4244 5.15416 11.5138 5.11714 11.607 5.11714C14.4182 5.04217 17.2294 5.10308 20.0406 5.29986C20.4904 5.32798 20.4904 6.00267 20.0406 6.00267Z"/>
<path fill-rule="evenodd" clip-rule="evenodd" d="M8.26152 1.16748L21.5586 1.30804C21.7708 1.31467 21.8829 1.47142 21.8949 1.63519L26.6327 5.34188V5.32782C26.6971 5.39351 26.7332 5.48182 26.7332 5.5738C26.7332 5.59446 26.7314 5.61493 26.7278 5.635C28.4135 5.62449 30.0982 5.5409 31.7773 5.38438C32.2046 5.34431 32.226 6.01481 31.8412 6.08181C31.6829 12.44 32.0755 18.8001 33.0147 25.0908V25.0627C33.0769 25.4481 32.5015 25.6465 32.3675 25.3762C32.3304 25.3916 32.2884 25.4003 32.2414 25.4003C21.983 26.6366 11.644 27.0737 1.31792 26.7075C0.932281 26.6954 0.877278 26.1874 1.15291 26.0428C1.13273 25.9931 1.12113 25.9379 1.12113 25.8782C2.14513 19.1153 2.10719 12.234 1.00868 5.48274C0.979086 5.29927 1.09403 5.15816 1.23704 5.08985C1.2496 5.07117 1.26402 5.05361 1.28017 5.03746C1.34607 4.97155 1.43544 4.93453 1.52864 4.93453H5.64027C5.6425 4.92981 5.64482 4.92513 5.64725 4.92048C6.25385 3.66883 6.97869 2.47801 7.81189 1.36428C7.86123 1.28717 7.93771 1.23139 8.02621 1.20796C8.05813 1.19951 8.09078 1.19549 8.12328 1.19581C8.16656 1.17729 8.21353 1.16748 8.26152 1.16748ZM6.98242 4.93453H6.42419C6.96276 3.8625 7.59066 2.83759 8.30129 1.87071L21.2951 2.00806C21.3124 2.04039 21.3349 2.06974 21.3617 2.09491L25.8893 5.6342C25.4577 5.63068 25.0261 5.62238 24.5946 5.60928C24.1448 5.60928 24.1448 6.28397 24.5946 6.31208C26.7771 6.37834 28.9614 6.32197 31.1372 6.1433C31.0075 11.642 31.2874 17.1417 31.9741 22.5968C31.9224 22.5634 31.8569 22.5443 31.7773 22.5467C22.1067 23.109 12.4267 23.3901 2.73733 23.3901C2.64414 23.3901 2.55475 23.4271 2.48885 23.493C2.42295 23.5589 2.38593 23.6483 2.38593 23.7415C2.38593 23.8347 2.42295 23.9241 2.48885 23.99C2.55475 24.0559 2.64414 24.0929 2.73733 24.0929C12.4173 24.0929 22.0973 23.8118 31.7773 23.2495C31.8963 23.2495 31.9848 23.1993 32.042 23.1258C32.1105 23.6497 32.1828 24.1732 32.2588 24.6962C32.2531 24.6965 32.2473 24.6969 32.2414 24.6974C22.1433 25.9145 11.967 26.357 1.80184 26.0212C2.82369 19.2628 2.80179 12.3881 1.73745 5.63734H6.98242C7.07561 5.63734 7.165 5.60032 7.2309 5.53441C7.2968 5.46851 7.33382 5.37913 7.33382 5.28593C7.33382 5.19274 7.2968 5.10336 7.2309 5.03746C7.165 4.97155 7.07561 4.93453 6.98242 4.93453Z"/>
</mask>
<path fill-rule="evenodd" clip-rule="evenodd" d="M13.7802 9.83004C12.8354 10.3318 12.0518 11.0937 11.5236 12.0276C10.9581 13.0274 10.7124 14.1765 10.8196 15.3202C10.9268 16.4638 11.3817 17.5472 12.1231 18.4246C12.8645 19.302 13.8568 19.9312 14.9666 20.2276C16.1677 20.536 17.4329 20.4846 18.605 20.0798C19.7771 19.6749 20.8043 18.9345 21.559 17.9505C22.2935 17.0313 22.7212 15.9048 22.7817 14.7297C22.8422 13.5546 22.5325 12.3902 21.8963 11.4004C21.1517 10.3268 20.0256 9.57775 18.7477 9.30599C17.1869 8.92087 15.5516 8.95969 14.0108 9.41844C13.8128 9.48444 13.7481 9.66821 13.7802 9.83004ZM14.5556 9.9973C15.6308 9.72665 16.7511 9.67745 17.8481 9.85418C18.9877 9.95912 20.0557 10.4559 20.8702 11.2598C21.5687 12.0026 22.009 12.9509 22.1255 13.9638C22.242 14.9768 22.0285 16.0003 21.5168 16.8822C20.9851 17.8246 20.1971 18.5968 19.2442 19.1093C18.2913 19.6219 17.2126 19.8537 16.1333 19.7778C15.0526 19.6842 14.0326 19.2381 13.2303 18.508C12.428 17.778 11.8878 16.8045 11.6929 15.7374C11.498 14.6703 11.6592 13.5688 12.1517 12.6023C12.6441 11.6358 13.4406 10.8579 14.4184 10.3883C14.5864 10.2983 14.611 10.1367 14.5556 9.9973Z" fill="white"/>
<path fill-rule="evenodd" clip-rule="evenodd" d="M6.1673 8.63139C5.87111 8.63103 5.58615 8.74472 5.37154 8.94886C5.15693 9.153 5.02915 9.43193 5.0147 9.72777C4.9987 10.0343 5.08346 10.3376 5.25605 10.5914C5.42865 10.8452 5.67958 11.0356 5.97052 11.1334C6.99662 11.5269 8.44439 10.796 8.2476 9.5872C8.20672 9.30039 8.063 9.03819 7.84321 8.84943C7.62342 8.66067 7.34254 8.55821 7.05283 8.56111C6.95964 8.56111 6.87025 8.59813 6.80435 8.66403C6.76462 8.70376 6.73538 8.75203 6.71843 8.80452C6.7133 8.79345 6.70763 8.78258 6.70143 8.77195C6.64924 8.68248 6.56365 8.61741 6.46348 8.59105C6.36331 8.56468 6.25677 8.5792 6.1673 8.63139ZM6.74178 9.06813L6.74357 9.06104C6.76128 9.09495 6.78415 9.12625 6.81162 9.15373C6.87616 9.21827 6.9618 9.25739 7.05283 9.26391H7.26368L7.34801 9.34825C7.35069 9.38099 7.35069 9.4139 7.34801 9.44664C7.34137 9.4696 7.34137 9.49397 7.34801 9.51692V9.64343L7.50263 10.037V10.1354C7.47736 10.1749 7.44379 10.2085 7.40424 10.2338H7.30585L7.08094 10.3181C6.93233 10.3463 6.77976 10.3463 6.63115 10.3181C6.53882 10.3098 6.44856 10.286 6.36409 10.2478C6.23825 10.1545 6.1488 10.0204 6.11108 9.86833C6.10971 9.84492 6.10971 9.82145 6.11108 9.79805V9.65749H6.20947C6.30267 9.65749 6.39204 9.62046 6.45794 9.55456C6.52384 9.48866 6.56087 9.39928 6.56087 9.30608C6.65034 9.25389 6.71542 9.1683 6.74178 9.06813Z" fill="white"/>
<path d="M28.7132 9.6996H25.143C25.0498 9.6996 24.9604 9.66258 24.8945 9.59668C24.8286 9.53078 24.7916 9.44139 24.7916 9.3482C24.7916 9.255 24.8286 9.16562 24.8945 9.09972C24.9604 9.03382 25.0498 8.99679 25.143 8.99679H28.7132C29.163 9.01085 29.163 9.6996 28.7132 9.6996Z" fill="white"/>
<path d="M20.0406 6.00267C17.2294 5.81526 14.4182 5.75435 11.607 5.81994C11.5138 5.81994 11.4244 5.78292 11.3585 5.71702C11.2926 5.65112 11.2556 5.56174 11.2556 5.46854C11.2556 5.37534 11.2926 5.28596 11.3585 5.22006C11.4244 5.15416 11.5138 5.11714 11.607 5.11714C14.4182 5.04217 17.2294 5.10308 20.0406 5.29986C20.4904 5.32798 20.4904 6.00267 20.0406 6.00267Z" fill="white"/>
<path fill-rule="evenodd" clip-rule="evenodd" d="M8.26152 1.16748L21.5586 1.30804C21.7708 1.31467 21.8829 1.47142 21.8949 1.63519L26.6327 5.34188V5.32782C26.6971 5.39351 26.7332 5.48182 26.7332 5.5738C26.7332 5.59446 26.7314 5.61493 26.7278 5.635C28.4135 5.62449 30.0982 5.5409 31.7773 5.38438C32.2046 5.34431 32.226 6.01481 31.8412 6.08181C31.6829 12.44 32.0755 18.8001 33.0147 25.0908V25.0627C33.0769 25.4481 32.5015 25.6465 32.3675 25.3762C32.3304 25.3916 32.2884 25.4003 32.2414 25.4003C21.983 26.6366 11.644 27.0737 1.31792 26.7075C0.932281 26.6954 0.877278 26.1874 1.15291 26.0428C1.13273 25.9931 1.12113 25.9379 1.12113 25.8782C2.14513 19.1153 2.10719 12.234 1.00868 5.48274C0.979086 5.29927 1.09403 5.15816 1.23704 5.08985C1.2496 5.07117 1.26402 5.05361 1.28017 5.03746C1.34607 4.97155 1.43544 4.93453 1.52864 4.93453H5.64027C5.6425 4.92981 5.64482 4.92513 5.64725 4.92048C6.25385 3.66883 6.97869 2.47801 7.81189 1.36428C7.86123 1.28717 7.93771 1.23139 8.02621 1.20796C8.05813 1.19951 8.09078 1.19549 8.12328 1.19581C8.16656 1.17729 8.21353 1.16748 8.26152 1.16748ZM6.98242 4.93453H6.42419C6.96276 3.8625 7.59066 2.83759 8.30129 1.87071L21.2951 2.00806C21.3124 2.04039 21.3349 2.06974 21.3617 2.09491L25.8893 5.6342C25.4577 5.63068 25.0261 5.62238 24.5946 5.60928C24.1448 5.60928 24.1448 6.28397 24.5946 6.31208C26.7771 6.37834 28.9614 6.32197 31.1372 6.1433C31.0075 11.642 31.2874 17.1417 31.9741 22.5968C31.9224 22.5634 31.8569 22.5443 31.7773 22.5467C22.1067 23.109 12.4267 23.3901 2.73733 23.3901C2.64414 23.3901 2.55475 23.4271 2.48885 23.493C2.42295 23.5589 2.38593 23.6483 2.38593 23.7415C2.38593 23.8347 2.42295 23.9241 2.48885 23.99C2.55475 24.0559 2.64414 24.0929 2.73733 24.0929C12.4173 24.0929 22.0973 23.8118 31.7773 23.2495C31.8963 23.2495 31.9848 23.1993 32.042 23.1258C32.1105 23.6497 32.1828 24.1732 32.2588 24.6962C32.2531 24.6965 32.2473 24.6969 32.2414 24.6974C22.1433 25.9145 11.967 26.357 1.80184 26.0212C2.82369 19.2628 2.80179 12.3881 1.73745 5.63734H6.98242C7.07561 5.63734 7.165 5.60032 7.2309 5.53441C7.2968 5.46851 7.33382 5.37913 7.33382 5.28593C7.33382 5.19274 7.2968 5.10336 7.2309 5.03746C7.165 4.97155 7.07561 4.93453 6.98242 4.93453Z" fill="white"/>
<path fill-rule="evenodd" clip-rule="evenodd" d="M13.7802 9.83004C12.8354 10.3318 12.0518 11.0937 11.5236 12.0276C10.9581 13.0274 10.7124 14.1765 10.8196 15.3202C10.9268 16.4638 11.3817 17.5472 12.1231 18.4246C12.8645 19.302 13.8568 19.9312 14.9666 20.2276C16.1677 20.536 17.4329 20.4846 18.605 20.0798C19.7771 19.6749 20.8043 18.9345 21.559 17.9505C22.2935 17.0313 22.7212 15.9048 22.7817 14.7297C22.8422 13.5546 22.5325 12.3902 21.8963 11.4004C21.1517 10.3268 20.0256 9.57775 18.7477 9.30599C17.1869 8.92087 15.5516 8.95969 14.0108 9.41844C13.8128 9.48444 13.7481 9.66821 13.7802 9.83004ZM14.5556 9.9973C15.6308 9.72665 16.7511 9.67745 17.8481 9.85418C18.9877 9.95912 20.0557 10.4559 20.8702 11.2598C21.5687 12.0026 22.009 12.9509 22.1255 13.9638C22.242 14.9768 22.0285 16.0003 21.5168 16.8822C20.9851 17.8246 20.1971 18.5968 19.2442 19.1093C18.2913 19.6219 17.2126 19.8537 16.1333 19.7778C15.0526 19.6842 14.0326 19.2381 13.2303 18.508C12.428 17.778 11.8878 16.8045 11.6929 15.7374C11.498 14.6703 11.6592 13.5688 12.1517 12.6023C12.6441 11.6358 13.4406 10.8579 14.4184 10.3883C14.5864 10.2983 14.611 10.1367 14.5556 9.9973Z" stroke="white" stroke-width="0.905082" stroke-linejoin="round" mask="url(#path-1-outside-1_210_268)"/>
<path fill-rule="evenodd" clip-rule="evenodd" d="M6.1673 8.63139C5.87111 8.63103 5.58615 8.74472 5.37154 8.94886C5.15693 9.153 5.02915 9.43193 5.0147 9.72777C4.9987 10.0343 5.08346 10.3376 5.25605 10.5914C5.42865 10.8452 5.67958 11.0356 5.97052 11.1334C6.99662 11.5269 8.44439 10.796 8.2476 9.5872C8.20672 9.30039 8.063 9.03819 7.84321 8.84943C7.62342 8.66067 7.34254 8.55821 7.05283 8.56111C6.95964 8.56111 6.87025 8.59813 6.80435 8.66403C6.76462 8.70376 6.73538 8.75203 6.71843 8.80452C6.7133 8.79345 6.70763 8.78258 6.70143 8.77195C6.64924 8.68248 6.56365 8.61741 6.46348 8.59105C6.36331 8.56468 6.25677 8.5792 6.1673 8.63139ZM6.74178 9.06813L6.74357 9.06104C6.76128 9.09495 6.78415 9.12625 6.81162 9.15373C6.87616 9.21827 6.9618 9.25739 7.05283 9.26391H7.26368L7.34801 9.34825C7.35069 9.38099 7.35069 9.4139 7.34801 9.44664C7.34137 9.4696 7.34137 9.49397 7.34801 9.51692V9.64343L7.50263 10.037V10.1354C7.47736 10.1749 7.44379 10.2085 7.40424 10.2338H7.30585L7.08094 10.3181C6.93233 10.3463 6.77976 10.3463 6.63115 10.3181C6.53882 10.3098 6.44856 10.286 6.36409 10.2478C6.23825 10.1545 6.1488 10.0204 6.11108 9.86833C6.10971 9.84492 6.10971 9.82145 6.11108 9.79805V9.65749H6.20947C6.30267 9.65749 6.39204 9.62046 6.45794 9.55456C6.52384 9.48866 6.56087 9.39928 6.56087 9.30608C6.65034 9.25389 6.71542 9.1683 6.74178 9.06813Z" stroke="white" stroke-width="0.905082" stroke-linejoin="round" mask="url(#path-1-outside-1_210_268)"/>
<path d="M28.7132 9.6996H25.143C25.0498 9.6996 24.9604 9.66258 24.8945 9.59668C24.8286 9.53078 24.7916 9.44139 24.7916 9.3482C24.7916 9.255 24.8286 9.16562 24.8945 9.09972C24.9604 9.03382 25.0498 8.99679 25.143 8.99679H28.7132C29.163 9.01085 29.163 9.6996 28.7132 9.6996Z" stroke="white" stroke-width="0.905082" stroke-linejoin="round" mask="url(#path-1-outside-1_210_268)"/>
<path d="M20.0406 6.00267C17.2294 5.81526 14.4182 5.75435 11.607 5.81994C11.5138 5.81994 11.4244 5.78292 11.3585 5.71702C11.2926 5.65112 11.2556 5.56174 11.2556 5.46854C11.2556 5.37534 11.2926 5.28596 11.3585 5.22006C11.4244 5.15416 11.5138 5.11714 11.607 5.11714C14.4182 5.04217 17.2294 5.10308 20.0406 5.29986C20.4904 5.32798 20.4904 6.00267 20.0406 6.00267Z" stroke="white" stroke-width="0.905082" stroke-linejoin="round" mask="url(#path-1-outside-1_210_268)"/>
<path fill-rule="evenodd" clip-rule="evenodd" d="M8.26152 1.16748L21.5586 1.30804C21.7708 1.31467 21.8829 1.47142 21.8949 1.63519L26.6327 5.34188V5.32782C26.6971 5.39351 26.7332 5.48182 26.7332 5.5738C26.7332 5.59446 26.7314 5.61493 26.7278 5.635C28.4135 5.62449 30.0982 5.5409 31.7773 5.38438C32.2046 5.34431 32.226 6.01481 31.8412 6.08181C31.6829 12.44 32.0755 18.8001 33.0147 25.0908V25.0627C33.0769 25.4481 32.5015 25.6465 32.3675 25.3762C32.3304 25.3916 32.2884 25.4003 32.2414 25.4003C21.983 26.6366 11.644 27.0737 1.31792 26.7075C0.932281 26.6954 0.877278 26.1874 1.15291 26.0428C1.13273 25.9931 1.12113 25.9379 1.12113 25.8782C2.14513 19.1153 2.10719 12.234 1.00868 5.48274C0.979086 5.29927 1.09403 5.15816 1.23704 5.08985C1.2496 5.07117 1.26402 5.05361 1.28017 5.03746C1.34607 4.97155 1.43544 4.93453 1.52864 4.93453H5.64027C5.6425 4.92981 5.64482 4.92513 5.64725 4.92048C6.25385 3.66883 6.97869 2.47801 7.81189 1.36428C7.86123 1.28717 7.93771 1.23139 8.02621 1.20796C8.05813 1.19951 8.09078 1.19549 8.12328 1.19581C8.16656 1.17729 8.21353 1.16748 8.26152 1.16748ZM6.98242 4.93453H6.42419C6.96276 3.8625 7.59066 2.83759 8.30129 1.87071L21.2951 2.00806C21.3124 2.04039 21.3349 2.06974 21.3617 2.09491L25.8893 5.6342C25.4577 5.63068 25.0261 5.62238 24.5946 5.60928C24.1448 5.60928 24.1448 6.28397 24.5946 6.31208C26.7771 6.37834 28.9614 6.32197 31.1372 6.1433C31.0075 11.642 31.2874 17.1417 31.9741 22.5968C31.9224 22.5634 31.8569 22.5443 31.7773 22.5467C22.1067 23.109 12.4267 23.3901 2.73733 23.3901C2.64414 23.3901 2.55475 23.4271 2.48885 23.493C2.42295 23.5589 2.38593 23.6483 2.38593 23.7415C2.38593 23.8347 2.42295 23.9241 2.48885 23.99C2.55475 24.0559 2.64414 24.0929 2.73733 24.0929C12.4173 24.0929 22.0973 23.8118 31.7773 23.2495C31.8963 23.2495 31.9848 23.1993 32.042 23.1258C32.1105 23.6497 32.1828 24.1732 32.2588 24.6962C32.2531 24.6965 32.2473 24.6969 32.2414 24.6974C22.1433 25.9145 11.967 26.357 1.80184 26.0212C2.82369 19.2628 2.80179 12.3881 1.73745 5.63734H6.98242C7.07561 5.63734 7.165 5.60032 7.2309 5.53441C7.2968 5.46851 7.33382 5.37913 7.33382 5.28593C7.33382 5.19274 7.2968 5.10336 7.2309 5.03746C7.165 4.97155 7.07561 4.93453 6.98242 4.93453Z" stroke="white" stroke-width="0.905082" stroke-linejoin="round" mask="url(#path-1-outside-1_210_268)"/>
</svg>
