<svg width="28" height="32" viewBox="0 0 28 32" fill="none" xmlns="http://www.w3.org/2000/svg">
<mask id="path-1-outside-1_210_390" maskUnits="userSpaceOnUse" x="-0.399094" y="0.151611" width="29" height="32" fill="black">
<rect fill="white" x="-0.399094" y="0.151611" width="29" height="32"/>
<path d="M10.6369 28.9671V28.974L10.6366 28.9709L10.6369 28.9671Z"/>
<path d="M10.6369 28.9178V28.9671C10.6379 28.9513 10.6379 28.9348 10.6369 28.9178Z"/>
<path fill-rule="evenodd" clip-rule="evenodd" d="M1.30406 30.4989L1.30371 30.506C1.2756 30.9558 0.600906 30.9698 0.600906 30.506C0.900771 24.593 0.952289 18.6801 0.755503 12.7671C0.748469 12.542 0.924479 12.4296 1.10209 12.4298L14.179 1.24096C14.3748 1.07654 14.6141 1.16071 14.7295 1.31856L14.7413 1.32542C19.335 4.27625 23.3351 8.06177 26.5344 12.486H26.5906C26.7349 12.6834 26.6249 12.8767 26.4512 12.9573C26.0766 18.5757 26.3925 24.219 27.3918 29.761C27.4538 30.0811 27.1062 30.2646 26.8838 30.1668C26.8405 30.1856 26.7896 30.1963 26.7311 30.1963C18.2563 29.8299 9.76772 29.931 1.30406 30.4989ZM1.47531 13.3268C1.63531 18.8239 1.58942 24.3129 1.33759 29.7939C6.65547 29.4378 11.9832 29.266 17.3111 29.2788C17.3036 29.25 17.2995 29.2187 17.2995 29.1848C17.2768 27.1044 17.0698 25.03 16.681 22.9861C16.3718 21.4118 15.8798 18.9941 13.7855 18.8957C11.6911 18.7973 11.1288 21.468 10.8618 23.0142C10.5414 24.9829 10.4658 26.9836 10.6366 28.9709C10.6062 29.3668 9.93406 29.3491 9.93406 28.9178C9.76514 26.8676 9.85016 24.8045 10.1871 22.7752C10.2632 21.2068 10.9553 19.7319 12.1128 18.6708C12.6729 18.2769 13.3576 18.1009 14.0382 18.176C14.7189 18.251 15.3487 18.5719 15.8096 19.0785C16.8232 20.362 17.4126 21.929 17.4963 23.5624C17.8155 25.4199 17.9847 27.3001 18.0023 29.1848C18.0034 29.2197 18.0001 29.2519 17.9931 29.2814C20.8745 29.2968 23.7559 29.3661 26.6357 29.4894C25.681 24.0568 25.3815 18.5289 25.7439 13.0244L1.47531 13.3268ZM1.97992 12.6177L25.5956 12.3235C22.5216 8.23437 18.7408 4.72591 14.4305 1.96478L1.97992 12.6177Z"/>
</mask>
<path d="M10.6369 28.9671V28.974L10.6366 28.9709L10.6369 28.9671Z" fill="white"/>
<path d="M10.6369 28.9178V28.9671C10.6379 28.9513 10.6379 28.9348 10.6369 28.9178Z" fill="white"/>
<path fill-rule="evenodd" clip-rule="evenodd" d="M1.30406 30.4989L1.30371 30.506C1.2756 30.9558 0.600906 30.9698 0.600906 30.506C0.900771 24.593 0.952289 18.6801 0.755503 12.7671C0.748469 12.542 0.924479 12.4296 1.10209 12.4298L14.179 1.24096C14.3748 1.07654 14.6141 1.16071 14.7295 1.31856L14.7413 1.32542C19.335 4.27625 23.3351 8.06177 26.5344 12.486H26.5906C26.7349 12.6834 26.6249 12.8767 26.4512 12.9573C26.0766 18.5757 26.3925 24.219 27.3918 29.761C27.4538 30.0811 27.1062 30.2646 26.8838 30.1668C26.8405 30.1856 26.7896 30.1963 26.7311 30.1963C18.2563 29.8299 9.76772 29.931 1.30406 30.4989ZM1.47531 13.3268C1.63531 18.8239 1.58942 24.3129 1.33759 29.7939C6.65547 29.4378 11.9832 29.266 17.3111 29.2788C17.3036 29.25 17.2995 29.2187 17.2995 29.1848C17.2768 27.1044 17.0698 25.03 16.681 22.9861C16.3718 21.4118 15.8798 18.9941 13.7855 18.8957C11.6911 18.7973 11.1288 21.468 10.8618 23.0142C10.5414 24.9829 10.4658 26.9836 10.6366 28.9709C10.6062 29.3668 9.93406 29.3491 9.93406 28.9178C9.76514 26.8676 9.85016 24.8045 10.1871 22.7752C10.2632 21.2068 10.9553 19.7319 12.1128 18.6708C12.6729 18.2769 13.3576 18.1009 14.0382 18.176C14.7189 18.251 15.3487 18.5719 15.8096 19.0785C16.8232 20.362 17.4126 21.929 17.4963 23.5624C17.8155 25.4199 17.9847 27.3001 18.0023 29.1848C18.0034 29.2197 18.0001 29.2519 17.9931 29.2814C20.8745 29.2968 23.7559 29.3661 26.6357 29.4894C25.681 24.0568 25.3815 18.5289 25.7439 13.0244L1.47531 13.3268ZM1.97992 12.6177L25.5956 12.3235C22.5216 8.23437 18.7408 4.72591 14.4305 1.96478L1.97992 12.6177Z" fill="white"/>
<path d="M1.47531 13.3268L1.46967 12.8743C1.34835 12.8758 1.23273 12.9259 1.14874 13.0135C1.06475 13.101 1.01943 13.2186 1.02296 13.3399L1.47531 13.3268ZM1.33759 29.7939L0.885527 29.7731C0.879611 29.9018 0.928877 30.027 1.02096 30.1172C1.11305 30.2074 1.23922 30.254 1.36783 30.2454L1.33759 29.7939ZM17.3111 29.2788L17.31 29.7313C17.4504 29.7316 17.5829 29.6668 17.6689 29.5558C17.7548 29.4449 17.7844 29.3003 17.749 29.1645L17.3111 29.2788ZM17.2995 29.1848H17.7521L17.752 29.1799L17.2995 29.1848ZM16.681 22.9861L17.1256 22.9015L17.1251 22.8988L16.681 22.9861ZM10.8618 23.0142L10.4158 22.9372L10.4151 22.9415L10.8618 23.0142ZM9.93406 28.9178H10.3866C10.3866 28.9054 10.3861 28.893 10.3851 28.8806L9.93406 28.9178ZM10.1871 22.7752L10.6335 22.8494C10.6364 22.8321 10.6383 22.8147 10.6391 22.7972L10.1871 22.7752ZM12.1128 18.6708L11.8524 18.3007C11.8365 18.3119 11.8213 18.3241 11.807 18.3372L12.1128 18.6708ZM15.8096 19.0785L16.1647 18.798C16.1582 18.7897 16.1514 18.7817 16.1443 18.7739L15.8096 19.0785ZM17.4963 23.5624L17.0443 23.5855C17.0452 23.6034 17.0472 23.6213 17.0503 23.639L17.4963 23.5624ZM18.0023 29.1848L17.5497 29.1891L17.55 29.199L18.0023 29.1848ZM17.9931 29.2814L17.5529 29.1764C17.5208 29.3107 17.5519 29.4523 17.6371 29.5609C17.7224 29.6695 17.8526 29.7332 17.9906 29.7339L17.9931 29.2814ZM26.6357 29.4894L26.6163 29.9416C26.7533 29.9474 26.8856 29.8909 26.976 29.7878C27.0664 29.6847 27.1051 29.5461 27.0814 29.4111L26.6357 29.4894ZM25.7439 13.0244L26.1954 13.0542C26.2037 12.9283 26.1591 12.8046 26.0723 12.7131C25.9855 12.6215 25.8644 12.5704 25.7382 12.5719L25.7439 13.0244ZM1.97992 12.6177L1.68571 12.2738C1.54098 12.3976 1.48928 12.5989 1.5564 12.7771C1.62352 12.9554 1.79509 13.0725 1.98555 13.0702L1.97992 12.6177ZM25.5956 12.3235L25.6012 12.776C25.7717 12.7739 25.9265 12.6761 26.0017 12.5231C26.0769 12.3701 26.0598 12.1878 25.9573 12.0515L25.5956 12.3235ZM14.4305 1.96478L14.6746 1.58372C14.5066 1.47609 14.2879 1.4912 14.1363 1.62092L14.4305 1.96478ZM10.6369 28.974L10.186 29.0128C10.2068 29.2543 10.4142 29.4365 10.6563 29.4261C10.8985 29.4157 11.0894 29.2164 11.0894 28.974H10.6369ZM10.6369 28.9178L11.0885 28.8895C11.0733 28.6456 10.8671 28.4578 10.6228 28.4654C10.3784 28.4731 10.1843 28.6733 10.1843 28.9178H10.6369ZM1.30406 30.4989L1.27376 30.0474C1.04462 30.0628 0.863332 30.2473 0.852063 30.4767L1.30406 30.4989ZM1.30371 30.506L1.75541 30.5342L1.75571 30.5282L1.30371 30.506ZM0.600906 30.506L0.148946 30.483C0.148559 30.4907 0.148365 30.4983 0.148365 30.506H0.600906ZM0.755503 12.7671L0.303182 12.7813L0.303213 12.7822L0.755503 12.7671ZM1.10209 12.4298L1.1016 12.8823C1.20966 12.8824 1.31419 12.8439 1.3963 12.7736L1.10209 12.4298ZM14.179 1.24096L13.888 0.894435L13.8848 0.897107L14.179 1.24096ZM14.7295 1.31856L14.3641 1.58554C14.4012 1.63631 14.4484 1.67879 14.5029 1.71028L14.7295 1.31856ZM14.7413 1.32542L14.9859 0.944668C14.98 0.940873 14.974 0.937216 14.9679 0.9337L14.7413 1.32542ZM26.5344 12.486L26.1677 12.7512C26.2528 12.8688 26.3892 12.9385 26.5344 12.9385V12.486ZM26.5906 12.486L26.956 12.219C26.8708 12.1024 26.7351 12.0334 26.5906 12.0334V12.486ZM26.4512 12.9573L26.2606 12.5469C26.1107 12.6165 26.0106 12.7623 25.9996 12.9272L26.4512 12.9573ZM27.3918 29.761L26.9464 29.8413L26.9475 29.847L27.3918 29.761ZM26.8838 30.1668L27.066 29.7526C26.9507 29.7019 26.8195 29.7015 26.7039 29.7516L26.8838 30.1668ZM26.7311 30.1963L26.7116 30.6485C26.7181 30.6487 26.7246 30.6489 26.7311 30.6489V30.1963ZM1.02296 13.3399C1.18263 18.8258 1.13683 24.3035 0.885527 29.7731L1.78966 29.8146C2.042 24.3223 2.08799 18.822 1.92766 13.3136L1.02296 13.3399ZM1.36783 30.2454C6.67528 29.89 11.9925 29.7186 17.31 29.7313L17.3122 28.8262C11.9738 28.8135 6.63566 28.9856 1.30736 29.3423L1.36783 30.2454ZM17.749 29.1645C17.7517 29.175 17.752 29.1822 17.752 29.1848H16.847C16.847 29.2552 16.8555 29.325 16.8732 29.393L17.749 29.1645ZM17.752 29.1799C17.729 27.0727 17.5193 24.9717 17.1256 22.9015L16.2365 23.0706C16.6202 25.0883 16.8245 27.136 16.847 29.1898L17.752 29.1799ZM17.1251 22.8988C16.9726 22.1224 16.7626 21.0593 16.3041 20.1785C15.8358 19.2788 15.0699 18.503 13.8067 18.4437L13.7642 19.3478C14.5954 19.3868 15.1227 19.8691 15.5013 20.5964C15.8897 21.3426 16.0803 22.2754 16.237 23.0733L17.1251 22.8988ZM13.8067 18.4437C12.5084 18.3827 11.7122 19.2038 11.2358 20.1315C10.7649 21.0487 10.549 22.1661 10.4158 22.9372L11.3077 23.0912C11.4416 22.3161 11.6404 21.3251 12.041 20.545C12.4361 19.7754 12.9682 19.3104 13.7642 19.3478L13.8067 18.4437ZM10.4151 22.9415C10.0888 24.947 10.0117 26.9852 10.1857 29.0096L11.0875 28.9321C10.9199 26.982 10.9941 25.0187 11.3084 23.0869L10.4151 22.9415ZM10.1854 28.9363C10.1866 28.9205 10.1921 28.8971 10.2066 28.8723C10.2207 28.848 10.2384 28.8309 10.2538 28.82C10.2686 28.8096 10.2804 28.8056 10.2862 28.804C10.2921 28.8025 10.2955 28.8025 10.2972 28.8026C10.299 28.8027 10.3027 28.8031 10.3088 28.8054C10.315 28.8077 10.3263 28.8131 10.3393 28.8247C10.353 28.8368 10.3664 28.8537 10.3757 28.8745C10.3851 28.8954 10.3866 28.9117 10.3866 28.9178H9.48152C9.48152 29.1548 9.57882 29.3604 9.73983 29.5028C9.89169 29.637 10.0792 29.6977 10.2507 29.7065C10.4216 29.7153 10.612 29.6745 10.7742 29.5605C10.9467 29.4393 11.0694 29.2457 11.0878 29.0055L10.1854 28.9363ZM10.3851 28.8806C10.2192 26.8676 10.3027 24.8419 10.6335 22.8494L9.74068 22.7011C9.39762 24.7671 9.31107 26.8677 9.48305 28.9549L10.3851 28.8806ZM10.6391 22.7972C10.7095 21.3479 11.3489 19.9849 12.4186 19.0044L11.807 18.3372C10.5616 19.4788 9.81702 21.0658 9.7351 22.7533L10.6391 22.7972ZM12.3731 19.041C12.8431 18.7105 13.4175 18.5628 13.9886 18.6258L14.0878 17.7261C13.2976 17.639 12.5027 17.8433 11.8524 18.3007L12.3731 19.041ZM13.9886 18.6258C14.5597 18.6887 15.0882 18.958 15.4748 19.383L16.1443 18.7739C15.6093 18.1859 14.878 17.8133 14.0878 17.7261L13.9886 18.6258ZM15.4544 19.3589C16.4099 20.5688 16.9655 22.0459 17.0443 23.5855L17.9482 23.5392C17.8598 21.8121 17.2365 20.1552 16.1647 18.798L15.4544 19.3589ZM17.0503 23.639C17.3653 25.4726 17.5324 27.3286 17.5498 29.1891L18.4548 29.1806C18.437 27.2716 18.2656 25.3672 17.9423 23.4857L17.0503 23.639ZM17.55 29.199C17.5499 29.1964 17.55 29.1883 17.5529 29.1764L18.4332 29.3864C18.4502 29.3155 18.4569 29.2431 18.4546 29.1707L17.55 29.199ZM17.9906 29.7339C20.8664 29.7493 23.7422 29.8185 26.6163 29.9416L26.6551 29.0373C23.7696 28.9137 20.8826 28.8443 17.9955 28.8289L17.9906 29.7339ZM27.0814 29.4111C26.133 24.0141 25.8355 18.5225 26.1954 13.0542L25.2923 12.9947C24.9276 18.5353 25.229 24.0994 26.19 29.5678L27.0814 29.4111ZM25.7382 12.5719L1.46967 12.8743L1.48095 13.7793L25.7495 13.4769L25.7382 12.5719ZM1.98555 13.0702L25.6012 12.776L25.59 11.871L1.97428 12.1652L1.98555 13.0702ZM25.9573 12.0515C22.8509 7.91935 19.0303 4.37394 14.6746 1.58372L14.1864 2.34584C18.4513 5.07788 22.1922 8.54938 25.2339 12.5954L25.9573 12.0515ZM14.1363 1.62092L1.68571 12.2738L2.27412 12.9615L14.7247 2.30863L14.1363 1.62092ZM10.1843 28.9671V28.974H11.0894V28.9671H10.1843ZM11.0877 28.9352L11.0875 28.932L10.1857 29.0097L10.186 29.0128L11.0877 28.9352ZM11.088 29.0031L11.0883 28.9993L10.1855 28.9349L10.1852 28.9386L11.088 29.0031ZM10.1843 28.9178V28.9671H11.0894V28.9178H10.1843ZM11.0884 28.9968C11.0908 28.961 11.0908 28.9252 11.0885 28.8895L10.1852 28.946C10.1851 28.9445 10.185 28.9416 10.1853 28.9373L11.0884 28.9968ZM0.852063 30.4767L0.851717 30.4838L1.75571 30.5282L1.75605 30.5211L0.852063 30.4767ZM0.852053 30.4777C0.852053 30.4777 0.852096 30.4771 0.852305 30.4757C0.852514 30.4744 0.852876 30.4726 0.853487 30.4702C0.854738 30.4655 0.85685 30.4594 0.860208 30.4527C0.867217 30.4386 0.877227 30.4261 0.888365 30.4166C0.908872 30.3992 0.926792 30.3962 0.93715 30.3961C0.947327 30.396 0.976222 30.3988 1.00821 30.4274C1.02486 30.4422 1.03785 30.4605 1.04583 30.4792C1.05371 30.4975 1.05345 30.5084 1.05345 30.506H0.148365C0.148365 30.7403 0.237925 30.9529 0.405321 31.1024C0.564695 31.2448 0.76402 31.303 0.946385 31.3011C1.31078 31.2974 1.72387 31.0382 1.75537 30.5342L0.852053 30.4777ZM1.05287 30.5289C1.35337 24.6033 1.405 18.6777 1.20779 12.7521L0.303213 12.7822C0.499577 18.6825 0.448169 24.5827 0.148946 30.483L1.05287 30.5289ZM1.20782 12.753C1.20798 12.758 1.20723 12.7756 1.19693 12.7994C1.18667 12.8231 1.17122 12.8428 1.15477 12.857C1.1248 12.8828 1.10277 12.8823 1.1016 12.8823L1.10259 11.9772C0.923806 11.977 0.724956 12.0327 0.564344 12.171C0.392633 12.3188 0.29551 12.5357 0.303183 12.7813L1.20782 12.753ZM1.3963 12.7736L14.4732 1.58482L13.8848 0.897107L0.807886 12.0859L1.3963 12.7736ZM14.4701 1.58747C14.4685 1.58883 14.4582 1.59635 14.4397 1.6009C14.4219 1.6053 14.4056 1.6047 14.3936 1.60225C14.3824 1.59996 14.376 1.59636 14.3731 1.59447C14.3704 1.59266 14.3674 1.59018 14.3641 1.58554L15.0948 1.05157C14.869 0.742482 14.3373 0.517037 13.888 0.894449L14.4701 1.58747ZM14.5029 1.71028L14.5147 1.71714L14.9679 0.9337L14.9561 0.926834L14.5029 1.71028ZM14.4967 1.70617C19.0429 4.62645 23.0015 8.37276 26.1677 12.7512L26.9011 12.2208C23.6687 7.75077 19.6272 3.92605 14.9859 0.944668L14.4967 1.70617ZM26.5344 12.9385H26.5906V12.0334H26.5344V12.9385ZM26.2253 12.753C26.2238 12.751 26.2119 12.7333 26.2069 12.7004C26.2017 12.6671 26.2061 12.6339 26.2165 12.6064C26.2262 12.5806 26.2389 12.5651 26.2462 12.5577C26.2535 12.5504 26.2587 12.5477 26.2606 12.5469L26.6417 13.3678C26.8135 13.288 26.9829 13.1402 27.0638 12.9244C27.1526 12.688 27.1112 12.4313 26.956 12.219L26.2253 12.753ZM25.9996 12.9272C25.6226 18.5825 25.9406 24.2629 26.9465 29.8413L27.8372 29.6807C26.8444 24.1751 26.5306 18.5689 26.9027 12.9874L25.9996 12.9272ZM26.9475 29.847C26.9457 29.8374 26.9453 29.8138 26.9573 29.7873C26.9678 29.7639 26.9815 29.7522 26.9877 29.7479C26.9932 29.7441 26.9983 29.7421 27.0054 29.7412C27.0123 29.7402 27.0345 29.7387 27.066 29.7526L26.7016 30.5811C26.9804 30.7037 27.2881 30.64 27.5012 30.4933C27.7348 30.3324 27.906 30.0358 27.8361 29.675L26.9475 29.847ZM26.7039 29.7516C26.7224 29.7435 26.7335 29.7438 26.7311 29.7438V30.6489C26.8456 30.6489 26.9585 30.6277 27.0638 30.582L26.7039 29.7516ZM26.7507 29.7442C18.2592 29.3771 9.75401 29.4783 1.27376 30.0474L1.33436 30.9504C9.78143 30.3836 18.2534 30.2828 26.7116 30.6485L26.7507 29.7442Z" fill="white" mask="url(#path-1-outside-1_210_390)"/>
</svg>
