<svg width="30" height="30" viewBox="0 0 30 30" fill="none" xmlns="http://www.w3.org/2000/svg">
<path d="M12.0128 24.6552C11.2474 24.1108 10.6836 23.3173 10.4136 22.4031C10.9136 22.0329 11.2777 21.5016 11.4466 20.8943C11.6183 20.2772 11.5779 19.6195 11.3337 19.0301C11.3214 18.9578 11.2961 18.8876 11.258 18.8232C11.2372 18.788 11.2076 18.7597 11.173 18.7405C11.0687 18.5352 10.9633 18.3289 10.8575 18.1219L10.8573 18.1214C9.50477 15.4736 8.09365 12.7043 7.86336 9.78778C9.97728 8.77864 12.2685 8.21307 14.6014 8.12554C16.9361 8.03794 19.2635 8.43099 21.4456 9.2804C21.4222 9.48889 21.3959 9.69461 21.3676 9.8966C20.8198 13.708 19.7337 17.4178 18.1434 20.9099C18.024 21.1644 18.0919 21.4142 18.2367 21.5789C18.2998 21.6507 18.3824 21.7113 18.4754 21.7499C18.4683 21.7777 18.4629 21.8064 18.4591 21.836C18.3132 22.7856 17.8561 23.6554 17.1638 24.3032C16.471 24.9515 15.5838 25.3389 14.6483 25.4028C13.7128 25.4667 12.7834 25.2033 12.0128 24.6552ZM23.4988 22.2589L19.3896 21.0087C20.9477 17.5188 22.0097 13.8183 22.5428 10.0194L22.543 10.018C22.7332 8.5963 22.8308 7.00977 22.5856 5.51517C22.34 4.01839 21.7483 2.60024 20.5492 1.53729C20.5442 1.53283 20.539 1.5286 20.5336 1.5246C19.2539 0.579338 17.7539 -0.00705791 16.1829 -0.175714C14.6118 -0.344371 13.0251 -0.0893413 11.5808 0.563747L11.5794 0.564375C10.2024 1.1981 9.02279 2.20617 8.16898 3.47786C7.31611 4.74817 6.82089 6.23295 6.73678 7.7704C6.3259 11.9903 8.34958 15.8682 10.2111 19.3802C10.2238 19.4312 10.2441 19.481 10.272 19.5286C10.2843 19.5495 10.2995 19.5678 10.3169 19.5832C10.4463 19.8904 10.4576 20.1638 10.3954 20.4075C10.3245 20.6851 10.1528 20.9441 9.90883 21.178C9.42219 21.6448 8.68755 21.9738 8.09163 22.1186C6.63582 22.2177 5.19567 22.4848 3.79862 22.9148C3.78904 22.9177 3.77965 22.9213 3.77054 22.9255C2.51601 23.5032 1.46367 24.4567 0.752363 25.6587C0.042094 26.859 -0.294905 28.2508 -0.214655 29.6504C-0.212705 29.8321 -0.136922 29.9822 -0.0166975 30.0837C0.100109 30.1823 0.247621 30.2263 0.38603 30.2263C0.524147 30.2263 0.672604 30.1823 0.787787 30.0798C0.908821 29.972 0.975825 29.8143 0.964523 29.6294L0.964436 29.6281C0.863887 28.1246 1.3471 26.642 2.308 25.5016C3.26612 24.3645 4.62183 23.6593 6.08201 23.536C7.19843 23.5644 8.30513 23.3621 9.33695 22.9456C9.67077 24.0787 10.3618 25.0712 11.307 25.7656C12.3174 26.5079 13.5527 26.8615 14.7945 26.7628C16.0362 26.6642 17.2029 26.1198 18.0886 25.2272C18.8758 24.4338 19.3959 23.4107 19.5818 22.3052C20.2153 22.4937 20.8512 22.6758 21.4851 22.8574L21.4878 22.8581C23.0572 23.3076 24.6178 23.7546 26.1402 24.296L26.1401 24.2963L26.152 24.2999C26.6304 24.441 27.0755 24.6815 27.4595 25.0066C27.8413 25.33 28.1546 25.7302 28.3798 26.1828C28.7692 27.1482 28.9938 28.1749 29.0436 29.2182C29.0453 29.4024 29.1275 29.551 29.2494 29.6495C29.3672 29.7448 29.5149 29.7884 29.653 29.7897C29.7902 29.7911 29.9418 29.7506 30.0584 29.6467C30.1826 29.536 30.2439 29.3734 30.2218 29.187C29.9901 26.9674 29.5353 24.5298 27.1822 23.4605L27.1822 23.4604L27.1738 23.4569C25.9778 22.9702 24.7497 22.5699 23.4988 22.2589ZM17.326 7.00753C17.3277 7.01852 17.3297 7.02937 17.332 7.04006C16.393 6.93153 15.4449 6.89606 14.4959 6.93506C13.6736 6.96886 12.8563 7.05834 12.0494 7.20215C12.0601 7.16585 12.0682 7.12741 12.0732 7.08685C12.156 6.43921 12.4614 5.84373 12.9333 5.40645C13.404 4.97029 14.0099 4.71975 14.643 4.69808C15.2799 4.70707 15.8951 4.94077 16.3841 5.36078C16.8739 5.78138 17.207 6.36304 17.326 7.00753ZM10.8953 7.05877C10.8953 7.19754 10.935 7.32111 11.0078 7.41929C9.90587 7.68277 8.82794 8.04897 7.78782 8.5143C7.80262 7.50004 8.00637 6.49432 8.39184 5.55212C8.92513 4.24858 9.78696 3.11379 10.8887 2.26316C12.1351 1.45699 13.5715 1.01136 15.0452 0.97325C16.5195 0.935122 17.9766 1.30625 19.2616 2.04749C21.1982 3.34608 21.6376 5.71216 21.5421 8.04369C20.5122 7.6646 19.4535 7.37996 18.3787 7.19198C18.4608 7.07192 18.5029 6.91694 18.4696 6.73546C18.4626 6.6972 18.4462 6.66266 18.423 6.63405C18.2566 5.74139 17.7883 4.93452 17.097 4.35633C16.3782 3.75504 15.4681 3.44286 14.5385 3.47986C13.6088 3.51687 12.7255 3.90042 12.0548 4.55681C11.3842 5.21307 10.9725 6.09664 10.896 7.0405C10.8955 7.04658 10.8953 7.05267 10.8953 7.05877ZM12.9066 20.0592C12.9225 20.0796 12.9422 20.0976 12.9652 20.1119C13.4319 20.4024 13.9626 20.5694 14.509 20.5974C15.0554 20.6253 15.5999 20.5133 16.0928 20.2717C16.1052 20.2656 16.1171 20.2583 16.1282 20.2501C16.2462 20.1623 16.3271 20.0338 16.3567 19.8902C16.3863 19.7466 16.3629 19.5967 16.2904 19.4692C16.2178 19.3415 16.1007 19.2447 15.9606 19.1989C15.8205 19.153 15.6686 19.1619 15.5347 19.2238L15.5346 19.2238C15.2238 19.3677 14.8834 19.4307 14.5435 19.4073C14.2036 19.384 13.8743 19.2751 13.5849 19.0899L13.585 19.0898L13.5775 19.0854C13.4423 19.006 13.2812 18.9841 13.1297 19.0251C12.9783 19.066 12.8503 19.166 12.7724 19.3014L12.7712 19.3035C12.6948 19.4395 12.6742 19.6003 12.7132 19.7513C12.7445 19.872 12.8122 19.9796 12.9066 20.0592Z" fill="white" fill-opacity="0.7" stroke="#272727" stroke-width="0.452541" stroke-linejoin="round"/>
</svg>
